<svg width="133" height="130" viewBox="0 0 133 130" fill="none" xmlns="http://www.w3.org/2000/svg">
<path d="M19.4806 119.51C45.4495 133.079 87.5532 133.079 113.522 119.51C139.491 105.942 139.494 83.9483 113.522 70.3801C87.5501 56.8119 45.4495 56.815 19.4775 70.3801C-6.49455 83.9452 -6.49146 105.939 19.4806 119.51Z" fill="#F5F5F5"/>
<path d="M52.294 107.727C59.2928 111.063 70.6372 111.063 77.6205 107.727C84.6038 104.392 84.6193 98.9866 77.6205 95.6509C70.6217 92.3152 59.2804 92.3152 52.294 95.6509C45.3076 98.9866 45.2829 104.395 52.294 107.727Z" fill="#EBEBEB"/>
<path d="M112.88 99.4713L87.8622 113.91C87.6549 114.015 87.4258 114.07 87.1935 114.07C86.9611 114.07 86.7321 114.015 86.5248 113.91L55.2528 95.8484C55.1721 95.821 55.102 95.769 55.0524 95.6998C55.0028 95.6305 54.9761 95.5475 54.9761 95.4623C54.9761 95.3771 55.0028 95.2941 55.0524 95.2248C55.102 95.1556 55.1721 95.1036 55.2528 95.0762L80.2704 80.637C80.4777 80.532 80.7067 80.4773 80.9391 80.4773C81.1714 80.4773 81.4005 80.532 81.6078 80.637L112.889 98.6991C112.969 98.7275 113.039 98.7803 113.088 98.8501C113.137 98.92 113.162 99.0033 113.161 99.0885C113.16 99.1737 113.132 99.2565 113.082 99.3251C113.032 99.3938 112.961 99.4449 112.88 99.4713Z" fill="#EBEBEB"/>
<path d="M119.841 20.0974V26.7286C119.841 26.7286 117.117 28.0042 112.12 28.0042C107.123 28.0042 104.398 26.7255 104.398 26.7255V20.2395L109.612 5.48525C109.541 5.94854 109.813 6.41183 110.424 6.77628C110.872 7.0524 111.38 7.21403 111.905 7.24689C112.43 7.27975 112.954 7.18283 113.433 6.96468C113.567 6.91187 113.697 6.84888 113.822 6.77628C114.47 6.40256 114.748 5.88985 114.622 5.40186L119.841 20.0974Z" fill="#F5F5F5"/>
<path opacity="0.5" d="M119.841 20.0974V26.7286C119.841 26.7286 117.117 28.0042 112.12 28.0042C107.123 28.0042 104.398 26.7255 104.398 26.7255V20.2395L109.612 5.48525C109.541 5.94854 109.813 6.41183 110.424 6.77628C110.872 7.0524 111.38 7.21403 111.905 7.24689C112.43 7.27975 112.954 7.18283 113.433 6.96468C113.567 6.91187 113.697 6.84888 113.822 6.77628C114.47 6.40256 114.748 5.88985 114.622 5.40186L119.841 20.0974Z" fill="white"/>
<path d="M119.242 66.5809C118.794 67.1707 118.227 67.6591 117.577 68.0141C114.557 69.7591 109.661 69.7591 106.644 68.0141C105.993 67.6594 105.424 67.171 104.976 66.5809C104.627 66.1175 104.421 65.5627 104.383 64.9841V68.4279C104.438 69.5275 105.189 70.6177 106.644 71.4578C109.661 73.1998 114.557 73.1998 117.577 71.4578C119.085 70.5868 119.841 69.4441 119.841 68.3013V64.8606C119.83 65.4832 119.62 66.0859 119.242 66.5809Z" fill="#F5F5F5"/>
<path d="M119.242 63.1373C118.794 63.7271 118.227 64.2155 117.577 64.5704C117.398 64.6724 117.216 64.7681 117.028 64.8577C114.177 66.2167 110.041 66.2167 107.193 64.8577C107.005 64.7681 106.82 64.6724 106.644 64.5704C105.993 64.2158 105.424 63.7274 104.976 63.1373C104.627 62.675 104.421 62.1212 104.383 61.5436V64.9843C104.421 65.5629 104.627 66.1177 104.976 66.5811C105.424 67.1712 105.993 67.6596 106.644 68.0142C109.661 69.7593 114.557 69.7593 117.577 68.0142C118.227 67.6593 118.794 67.1709 119.242 66.5811C119.62 66.0861 119.83 65.4834 119.841 64.8608V61.417C119.83 62.0396 119.62 62.6424 119.242 63.1373Z" fill="#EBEBEB"/>
<path d="M119.242 59.6935C118.794 60.2836 118.227 60.7729 117.577 61.1297C117.398 61.2316 117.216 61.3243 117.028 61.4169C114.177 62.7759 110.041 62.7759 107.193 61.4169C107.005 61.3243 106.82 61.2316 106.644 61.1297C105.993 60.7729 105.425 60.2836 104.976 59.6935C104.627 59.2312 104.421 58.6774 104.383 58.0998V61.5436C104.421 62.1212 104.627 62.675 104.976 63.1373C105.424 63.7273 105.993 64.2158 106.644 64.5704C106.82 64.6723 107.005 64.7681 107.193 64.8576C110.041 66.2166 114.177 66.2166 117.028 64.8576C117.216 64.7681 117.398 64.6723 117.577 64.5704C118.227 64.2154 118.794 63.727 119.242 63.1373C119.62 62.6423 119.83 62.0396 119.841 61.4169V57.9731C119.83 58.5959 119.62 59.1988 119.242 59.6935Z" fill="#F5F5F5"/>
<path d="M104.383 20.2273V58.0997C104.421 58.6773 104.627 59.2311 104.976 59.6934C105.425 60.2835 105.993 60.7728 106.644 61.1296C106.82 61.2315 107.005 61.3242 107.193 61.4168C107.94 61.7648 108.726 62.021 109.535 62.1797L108.135 22.2658L104.383 20.2273Z" fill="#F5F5F5"/>
<path d="M116.086 22.2658L114.684 62.1798C115.492 62.021 116.278 61.7649 117.025 61.4169C117.213 61.3242 117.395 61.2316 117.575 61.1297C118.224 60.7729 118.791 60.2836 119.239 59.6935C119.618 59.1987 119.828 58.5958 119.838 57.9731V20.0977L116.086 22.2658Z" fill="#F5F5F5"/>
<path d="M104.383 20.2273V58.0997C104.421 58.6773 104.627 59.2311 104.976 59.6934C105.425 60.2835 105.993 60.7728 106.644 61.1296C106.82 61.2315 107.005 61.3242 107.193 61.4168C107.94 61.7648 108.726 62.021 109.535 62.1797L108.135 22.2658L104.383 20.2273Z" fill="#E0E0E0"/>
<path d="M116.086 22.2658L114.684 62.1798C115.492 62.021 116.278 61.7649 117.025 61.4169C117.213 61.3242 117.395 61.2316 117.575 61.1297C118.224 60.7729 118.791 60.2836 119.239 59.6935C119.618 59.1987 119.828 58.5958 119.838 57.9731V20.0977L116.086 22.2658Z" fill="#E0E0E0"/>
<path d="M108.136 22.2659V61.7999C108.593 61.958 109.061 62.0859 109.535 62.1829C110.383 62.3542 111.246 62.4401 112.111 62.4392C112.976 62.4386 113.839 62.3527 114.687 62.1829C115.161 62.0859 115.628 61.958 116.086 61.7999V22.2659H108.136Z" fill="#EBEBEB"/>
<path d="M113.81 6.76101C113.685 6.83362 113.555 6.8966 113.421 6.94942C112.942 7.16756 112.418 7.26448 111.893 7.23162C111.368 7.19876 110.86 7.03713 110.412 6.76101C109.795 6.40891 109.529 5.93327 109.6 5.46998L111.379 0.488074C111.438 0.342392 111.539 0.217825 111.67 0.130732C111.8 0.0436395 111.954 -0.00190636 112.111 7.49598e-05C112.269 -0.00210526 112.423 0.0433192 112.554 0.130397C112.685 0.217476 112.787 0.342147 112.846 0.488074L114.607 5.38041C114.727 5.86841 114.458 6.38729 113.81 6.76101Z" fill="#E0E0E0"/>
<path d="M117.578 71.4576C114.983 72.9555 111.005 73.1625 108.022 72.0753C107.855 72.0176 107.691 71.9528 107.531 71.8807L107.308 71.788C107.077 71.683 106.854 71.5688 106.644 71.4483C105.189 70.6082 104.439 69.5179 104.383 68.4184V77.8015C104.328 78.9876 105.078 80.1829 106.644 81.0847C106.829 81.1928 107.024 81.2948 107.225 81.3936C107.299 81.4306 107.379 81.4584 107.453 81.4924C107.583 81.548 107.71 81.6067 107.842 81.6561C107.975 81.7055 108.049 81.7302 108.151 81.7642C108.253 81.7982 108.371 81.8445 108.485 81.8785C108.599 81.9125 108.738 81.9495 108.865 81.9835C108.991 82.0175 109.059 82.0391 109.158 82.0607C109.257 82.0823 109.452 82.1256 109.6 82.1534C109.683 82.1534 109.767 82.1904 109.85 82.2028C110.017 82.2337 110.187 82.2553 110.357 82.28L110.557 82.3078C110.746 82.3294 110.934 82.3449 111.123 82.3572H111.271C111.478 82.3727 111.685 82.3789 111.889 82.3819H111.987C112.21 82.3819 112.432 82.3819 112.655 82.3819H112.704C112.939 82.3819 113.173 82.3541 113.408 82.3325C114.784 82.2157 116.124 81.8317 117.352 81.2021C117.42 81.165 117.491 81.1341 117.559 81.094C119.066 80.223 119.823 79.0802 119.823 77.9374V68.301C119.842 69.4438 119.085 70.5866 117.578 71.4576Z" fill="#E0E0E0"/>
<path d="M24.3356 76.9311C23.443 76.7056 18.6773 73.9938 18.1924 73.6633C17.7075 73.3329 16.75 72.6503 16.75 71.4735C16.75 70.4327 16.8581 60.6171 17.7106 55.8761C17.9906 54.4013 18.5694 52.9993 19.4112 51.7565C20.2531 50.5136 21.3403 49.456 22.606 48.6488C25.571 46.8111 28.5515 45.4799 31.0626 46.5238C33.5736 47.5678 35.8653 49.4858 36.8537 51.8023C37.842 54.1187 38.5184 58.7578 38.5895 60.5522C38.6605 62.3467 38.5895 68.4992 38.5895 69.0459C38.5895 69.5926 38.4906 70.3029 35.5472 72.1345C32.6038 73.966 28.5392 76.1497 27.2821 76.7149C26.3471 77.095 25.3161 77.1706 24.3356 76.9311Z" fill="#37474F"/>
<path d="M23.6009 49.9244C23.3291 50.0788 22.5446 49.6927 22.4273 49.4981C22.3099 49.3035 22.279 47.6203 22.8658 46.6906C23.4527 45.7609 27.1127 44.0468 28.0176 44.1734C28.3566 44.2286 28.6807 44.3524 28.9701 44.5372C29.2596 44.722 29.5082 44.964 29.7009 45.2482C29.8121 45.486 29.9356 47.052 29.7009 47.3732C29.4662 47.6944 28.6292 47.2002 28.555 47.0643C28.4809 46.9284 28.8299 45.7826 28.2462 45.5447C27.7088 45.3285 25.1576 46.4126 24.1198 47.2836C23.6689 47.6635 23.6905 48.6055 23.7121 49.0719C23.7337 49.5383 23.7368 49.8441 23.6009 49.9244Z" fill="#455A64"/>
<path d="M22.8658 60.9752C23.3908 55.876 24.3359 52.8986 29.324 50.6778C34.3121 48.4571 36.2486 50.3474 36.9559 52.0492C37.8825 54.4336 38.5219 58.8194 38.5898 60.5521C38.6608 62.3466 38.5898 68.499 38.5898 69.0457C38.5898 69.5924 38.491 70.3028 35.5475 72.1343C32.6041 73.9659 28.5395 76.1495 27.2824 76.7147C26.3484 77.0979 25.3174 77.1768 24.3359 76.9402C24.1388 76.8802 23.9467 76.8048 23.7614 76.7147C22.2079 74.7195 22.3839 65.6328 22.8658 60.9752Z" fill="#455A64"/>
<path d="M34.4942 48.6857C33.1908 47.9229 31.0535 47.4194 27.9155 48.8185C22.3066 51.3172 20.8828 54.446 20.3176 59.9375C20.2156 60.9444 20.0643 62.1428 20.0087 63.4307L19.5454 63.1496C19.6103 61.7598 19.7462 60.5707 19.8543 59.4958C20.472 53.9642 22.1306 50.9064 27.4893 48.519C30.4574 47.197 32.4063 47.37 33.6974 48.0217C33.9746 48.2287 34.2406 48.4504 34.4942 48.6857Z" fill="#263238"/>
<path d="M34.689 48.8278C33.3887 48.0649 31.2483 47.5615 28.1134 48.9606C22.5014 51.4593 21.0776 54.588 20.5124 60.0795C20.4105 61.0864 20.2591 62.2848 20.2035 63.5727L19.7402 63.2917C19.8051 61.9018 19.941 60.7127 20.0491 59.6379C20.6668 54.1062 22.3254 51.0454 27.6841 48.661C30.6522 47.3391 32.6537 47.5584 33.9447 48.207C34.2043 48.3998 34.4528 48.607 34.689 48.8278Z" fill="#455A64"/>
<path d="M32.8732 53.6769L31.1776 52.707C31.0939 52.6601 30.9951 52.648 30.9026 52.6734C30.8101 52.6989 30.7313 52.7598 30.6834 52.8429L28.9445 55.8667C28.8961 55.9499 28.8825 56.0489 28.9068 56.1421C28.9311 56.2352 28.9913 56.315 29.0742 56.3639L30.7483 57.3399C30.8315 57.3884 30.9305 57.4019 31.0236 57.3776C31.1168 57.3533 31.1966 57.2931 31.2455 57.2102L33.006 54.1679C33.0302 54.1271 33.0459 54.0819 33.0523 54.0349C33.0587 53.9879 33.0556 53.9402 33.0432 53.8944C33.0308 53.8486 33.0094 53.8058 32.9802 53.7684C32.951 53.7311 32.9146 53.6999 32.8732 53.6769Z" fill="#263238"/>
<path d="M31.0531 56.9941L32.724 54.1124C32.7361 54.0918 32.7439 54.069 32.747 54.0453C32.7501 54.0216 32.7484 53.9976 32.7421 53.9746C32.7357 53.9515 32.7249 53.93 32.7101 53.9113C32.6953 53.8925 32.677 53.8769 32.6561 53.8653L31.1118 52.9882C31.0699 52.9647 31.0205 52.9586 30.9743 52.9714C30.928 52.9841 30.8886 53.0145 30.8647 53.0561L29.2123 55.9254C29.1888 55.9673 29.1828 56.0167 29.1955 56.0629C29.2082 56.1092 29.2387 56.1486 29.2802 56.1725L30.7967 57.0589C30.8176 57.0722 30.841 57.081 30.8655 57.0849C30.8899 57.0888 30.9149 57.0877 30.9388 57.0816C30.9628 57.0755 30.9853 57.0646 31.005 57.0496C31.0246 57.0345 31.041 57.0156 31.0531 56.9941Z" fill="#455A64"/>
<path d="M31.4116 55.6167C31.4561 55.5898 31.4938 55.5529 31.5216 55.5089C31.5495 55.465 31.5668 55.4152 31.5722 55.3634V53.9828C31.5722 53.8933 31.5012 53.8655 31.4116 53.9149C31.3671 53.9418 31.3294 53.9787 31.3015 54.0226C31.2737 54.0666 31.2564 54.1164 31.251 54.1681V55.5487C31.251 55.6383 31.322 55.6661 31.4116 55.6167Z" fill="#37474F"/>
<path d="M30.5166 56.1354C30.561 56.1076 30.5986 56.0701 30.6264 56.0257C30.6542 55.9813 30.6716 55.9311 30.6772 55.879V54.5015C30.6772 54.412 30.603 54.3811 30.5166 54.4336C30.4717 54.4601 30.4338 54.4969 30.4059 54.5409C30.378 54.585 30.3609 54.635 30.356 54.6868V56.0674C30.3652 56.1539 30.427 56.1848 30.5166 56.1354Z" fill="#37474F"/>
<path d="M25.1761 65.2869C25.1761 65.2869 26.0162 65.9787 26.6216 68.5855C27.227 71.1923 27.5914 74.4754 26.9305 74.8708C26.2695 75.2661 25.3151 74.4384 25.0773 74.1542C24.5893 73.5705 24.7098 67.3748 25.1761 65.2869Z" fill="#263238"/>
<path d="M25.1763 65.287C25.1763 65.287 26.0164 65.9789 26.6217 68.5856C27.2271 71.1924 27.5916 74.4756 26.9306 74.8709L37.123 68.8605C37.7901 68.4652 37.9538 65.0152 37.3515 62.4085C36.9531 60.6943 36.2211 59.8789 35.7702 59.5206C35.6667 59.4407 35.5417 59.3936 35.4113 59.3853C35.2808 59.3771 35.1509 59.4081 35.0382 59.4743L25.1763 65.287Z" fill="#37474F"/>
<path d="M35.56 59.9188C36.048 60.1597 36.8757 60.8237 37.2494 62.5873C37.3125 62.8274 37.3068 63.0803 37.2331 63.3173C37.1593 63.5543 37.0205 63.7658 36.8325 63.9278C36.4927 64.1687 29.1975 68.3167 28.2307 68.8942C27.3968 69.3915 26.9644 68.7305 26.7822 68.3167C26.4733 67.5816 26.2077 67.0102 25.9791 66.5716C25.8046 66.0933 25.5322 65.6568 25.1792 65.2898L34.899 59.9466C34.9985 59.8882 35.1108 59.8551 35.226 59.8502C35.3413 59.8454 35.456 59.8689 35.56 59.9188Z" fill="#263238"/>
<path d="M20.3238 63.8598C20.465 64.3907 20.557 64.9335 20.5987 65.4813C20.5987 65.5925 20.4473 65.6512 20.4041 65.6512C20.0509 65.5801 19.724 65.4134 19.459 65.1693C19.5085 64.7024 19.5932 64.2399 19.7122 63.7856L20.3238 63.8598Z" fill="#263238"/>
<path d="M20.6388 63.4244C20.6388 63.3077 20.6042 63.1937 20.5394 63.0967C20.4746 62.9996 20.3825 62.924 20.2747 62.8794C20.1669 62.8347 20.0483 62.823 19.9338 62.8458C19.8194 62.8686 19.7143 62.9248 19.6318 63.0073C19.5493 63.0898 19.4931 63.1949 19.4703 63.3093C19.4476 63.4237 19.4592 63.5424 19.5039 63.6502C19.5485 63.7579 19.6242 63.8501 19.7212 63.9149C19.8182 63.9797 19.9322 64.0143 20.0489 64.0143C20.2054 64.0143 20.3554 63.9522 20.466 63.8415C20.5767 63.7309 20.6388 63.5809 20.6388 63.4244Z" fill="#263238"/>
<path d="M28.0181 45.5167C28.6636 45.455 29.272 45.5167 29.4265 46.1623C29.5809 46.8078 29.5253 47.3977 29.4265 47.478C29.0994 47.4365 28.7942 47.2915 28.5555 47.0641C28.4814 46.9251 28.8304 45.7824 28.2466 45.5445C28.175 45.5208 28.0995 45.5113 28.0242 45.5167H28.0181Z" fill="#263238"/>
<path d="M35.0999 59.4401C35.1998 59.3811 35.3126 59.3478 35.4285 59.3429C35.5443 59.3381 35.6596 59.3619 35.764 59.4123C36.252 59.6532 37.0797 60.3172 37.4534 62.0808C37.5161 62.3209 37.5102 62.5737 37.4365 62.8106C37.3628 63.0476 37.2243 63.2591 37.0365 63.4213C36.6967 63.6622 29.4046 67.8102 28.4378 68.3877C27.6039 68.885 27.1684 68.224 26.9862 67.8102C25.9762 65.6976 25.1763 65.2868 25.1763 65.2868L35.0999 59.4401Z" fill="#37474F"/>
<path d="M33.3517 95.373L25.1731 90.6536C24.9595 90.5138 24.7817 90.3259 24.6541 90.1049C24.5264 89.8838 24.4524 89.636 24.438 89.3811V89.4738C24.4519 89.2188 24.5257 88.9707 24.6534 88.7497C24.7811 88.5286 24.9592 88.3407 25.1731 88.2013L41.6199 78.7069C41.847 78.5911 42.0984 78.5308 42.3534 78.5308C42.6084 78.5308 42.8598 78.5911 43.0869 78.7069L51.2655 83.4294C51.4797 83.5678 51.658 83.755 51.7858 83.9756C51.9136 84.1963 51.9872 84.4442 52.0006 84.6988V84.6061C51.9871 84.8608 51.9137 85.1087 51.7866 85.3298C51.6594 85.5509 51.482 85.7389 51.2686 85.8786L34.8218 95.373C34.5941 95.4888 34.3423 95.5492 34.0868 95.5492C33.8313 95.5492 33.5794 95.4888 33.3517 95.373Z" fill="#FDA758"/>
<path opacity="0.7" d="M33.3517 95.373L25.1731 90.6536C24.9595 90.5138 24.7817 90.3259 24.6541 90.1049C24.5264 89.8838 24.4524 89.636 24.438 89.3811V89.4738C24.4519 89.2188 24.5257 88.9707 24.6534 88.7497C24.7811 88.5286 24.9592 88.3407 25.1731 88.2013L41.6199 78.7069C41.847 78.5911 42.0984 78.5308 42.3534 78.5308C42.6084 78.5308 42.8598 78.5911 43.0869 78.7069L51.2655 83.4294C51.4797 83.5678 51.658 83.755 51.7858 83.9756C51.9136 84.1963 51.9872 84.4442 52.0006 84.6988V84.6061C51.9871 84.8608 51.9137 85.1087 51.7866 85.3298C51.6594 85.5509 51.482 85.7389 51.2686 85.8786L34.8218 95.373C34.5941 95.4888 34.3423 95.5492 34.0868 95.5492C33.8313 95.5492 33.5794 95.4888 33.3517 95.373Z" fill="black"/>
<path d="M34.071 83.0557L25.1604 88.2013C24.9465 88.3407 24.7684 88.5286 24.6407 88.7497C24.513 88.9707 24.4392 89.2188 24.4253 89.4738V89.3811C24.4397 89.6359 24.5137 89.8838 24.6414 90.1049C24.769 90.3259 24.9468 90.5138 25.1604 90.6536L33.339 95.373C33.565 95.4933 33.818 95.5539 34.0741 95.549L34.071 83.0557Z" fill="#FDA758"/>
<path opacity="0.7" d="M34.071 83.0557L25.1604 88.2013C24.9465 88.3407 24.7684 88.5286 24.6407 88.7497C24.513 88.9707 24.4392 89.2188 24.4253 89.4738V89.3811C24.4397 89.6359 24.5137 89.8838 24.6414 90.1049C24.769 90.3259 24.9468 90.5138 25.1604 90.6536L33.339 95.373C33.565 95.4933 33.818 95.5539 34.0741 95.549L34.071 83.0557Z" fill="black"/>
<path d="M25.1695 89.0506L33.3451 93.7731C33.5733 93.8873 33.825 93.9467 34.0801 93.9467C34.3353 93.9467 34.587 93.8873 34.8152 93.7731L51.262 84.2757C51.6697 84.0409 51.6697 83.6579 51.262 83.4294L43.0834 78.7069C42.8562 78.5911 42.6049 78.5308 42.3499 78.5308C42.0949 78.5308 41.8435 78.5911 41.6163 78.7069L25.1695 88.2013C24.7618 88.436 24.7618 88.8159 25.1695 89.0506Z" fill="#FDA758"/>
<path opacity="0.5" d="M25.1695 89.0506L33.3451 93.7731C33.5733 93.8873 33.825 93.9467 34.0801 93.9467C34.3353 93.9467 34.587 93.8873 34.8152 93.7731L51.262 84.2757C51.6697 84.0409 51.6697 83.6579 51.262 83.4294L43.0834 78.7069C42.8562 78.5911 42.6049 78.5308 42.3499 78.5308C42.0949 78.5308 41.8435 78.5911 41.6163 78.7069L25.1695 88.2013C24.7618 88.436 24.7618 88.8159 25.1695 89.0506Z" fill="black"/>
<path d="M25.1699 87.4969V88.2814L33.6574 93.1831C33.7866 93.2573 33.933 93.2964 34.0821 93.2964C34.2311 93.2964 34.3775 93.2573 34.5068 93.1831L51.2624 83.5065V82.6973L34.0805 91.0365L25.1699 87.4969Z" fill="#FDA758"/>
<path d="M33.3487 92.2195L25.1701 87.497C24.9559 87.3579 24.7776 87.1702 24.6498 86.949C24.5221 86.7278 24.4485 86.4796 24.4351 86.2245V84.7142C24.4485 84.4591 24.5221 84.2108 24.6498 83.9897C24.7776 83.7685 24.9559 83.5807 25.1701 83.4417L41.6169 73.9442C41.8441 73.8284 42.0955 73.7681 42.3505 73.7681C42.6055 73.7681 42.8568 73.8284 43.084 73.9442L51.2626 78.6667C51.4769 78.8058 51.6551 78.9935 51.7829 79.2147C51.9107 79.4359 51.9843 79.6841 51.9977 79.9392V81.4526C51.9822 81.7022 51.9075 81.9444 51.7796 82.1593C51.6518 82.3741 51.4745 82.5554 51.2626 82.688L34.8158 92.2102C34.5894 92.3274 34.3384 92.3894 34.0834 92.391C33.8284 92.3926 33.5767 92.3338 33.3487 92.2195Z" fill="#FDA758"/>
<path opacity="0.6" d="M33.3487 92.2195L25.1701 87.497C24.9559 87.3579 24.7776 87.1702 24.6498 86.949C24.5221 86.7278 24.4485 86.4796 24.4351 86.2245V84.7142C24.4485 84.4591 24.5221 84.2108 24.6498 83.9897C24.7776 83.7685 24.9559 83.5807 25.1701 83.4417L41.6169 73.9442C41.8441 73.8284 42.0955 73.7681 42.3505 73.7681C42.6055 73.7681 42.8568 73.8284 43.084 73.9442L51.2626 78.6667C51.4769 78.8058 51.6551 78.9935 51.7829 79.2147C51.9107 79.4359 51.9843 79.6841 51.9977 79.9392V81.4526C51.9822 81.7022 51.9075 81.9444 51.7796 82.1593C51.6518 82.3741 51.4745 82.5554 51.2626 82.688L34.8158 92.2102C34.5894 92.3274 34.3384 92.3894 34.0834 92.391C33.8284 92.3926 33.5767 92.3338 33.3487 92.2195Z" fill="black"/>
<path d="M34.071 78.2961L25.1604 83.4417C24.9461 83.5808 24.7678 83.7686 24.6401 83.9898C24.5123 84.2109 24.4387 84.4592 24.4253 84.7142V86.2246C24.4387 86.4796 24.5123 86.7279 24.6401 86.9491C24.7678 87.1702 24.9461 87.358 25.1604 87.4971L33.339 92.2195C33.5638 92.3402 33.8159 92.4009 34.071 92.3956V78.2961Z" fill="#FDA758"/>
<path opacity="0.7" d="M34.071 78.2961L25.1604 83.4417C24.9461 83.5808 24.7678 83.7686 24.6401 83.9898C24.5123 84.2109 24.4387 84.4592 24.4253 84.7142V86.2246C24.4387 86.4796 24.5123 86.7279 24.6401 86.9491C24.7678 87.1702 24.9461 87.358 25.1604 87.4971L33.339 92.2195C33.5638 92.3402 33.8159 92.4009 34.071 92.3956V78.2961Z" fill="black"/>
<path d="M25.1695 84.2879L33.3451 89.0104C33.5728 89.1262 33.8247 89.1866 34.0801 89.1866C34.3356 89.1866 34.5875 89.1262 34.8152 89.0104L51.262 79.5161C51.6697 79.2813 51.6697 78.8983 51.262 78.6667L43.0834 73.9442C42.8562 73.8284 42.6049 73.7681 42.3499 73.7681C42.0949 73.7681 41.8435 73.8284 41.6163 73.9442L25.1695 83.4417C24.7618 83.6764 24.7618 84.0563 25.1695 84.2879Z" fill="#FDA758"/>
<path opacity="0.5" d="M25.1695 84.2879L33.3451 89.0104C33.5728 89.1262 33.8247 89.1866 34.0801 89.1866C34.3356 89.1866 34.5875 89.1262 34.8152 89.0104L51.262 79.5161C51.6697 79.2813 51.6697 78.8983 51.262 78.6667L43.0834 73.9442C42.8562 73.8284 42.6049 73.7681 42.3499 73.7681C42.0949 73.7681 41.8435 73.8284 41.6163 73.9442L25.1695 83.4417C24.7618 83.6764 24.7618 84.0563 25.1695 84.2879Z" fill="black"/>
<path d="M36.5762 80.5351C35.6712 81.0602 35.6712 81.9034 36.5762 82.4223C37.085 82.6781 37.6467 82.8114 38.2162 82.8114C38.7858 82.8114 39.3474 82.6781 39.8563 82.4223C40.7612 81.9034 40.7612 81.0602 39.8563 80.5351C39.3479 80.2779 38.786 80.1438 38.2162 80.1438C37.6464 80.1438 37.0846 80.2779 36.5762 80.5351Z" fill="#FDA758"/>
<path d="M49.9313 81.0881C49.8474 81.143 49.7776 81.2169 49.7277 81.3038C49.6778 81.3908 49.6491 81.4883 49.644 81.5884C49.644 81.7738 49.7738 81.851 49.9313 81.7614C50.0152 81.7065 50.085 81.6326 50.1349 81.5457C50.1848 81.4587 50.2135 81.3612 50.2185 81.261C50.2185 81.0757 50.0888 80.9985 49.9313 81.0881Z" fill="#FDA758"/>
<path d="M49.9313 82.1972C49.8474 82.2521 49.7776 82.326 49.7277 82.413C49.6778 82.4999 49.6491 82.5974 49.644 82.6976C49.644 82.8829 49.7738 82.9601 49.9313 82.8705C50.0163 82.8168 50.0868 82.7431 50.1369 82.6559C50.187 82.5687 50.215 82.4707 50.2185 82.3702C50.2185 82.1849 50.0888 82.1076 49.9313 82.1972Z" fill="#FDA758"/>
<path d="M29.923 101.615C29.8852 101.615 29.848 101.605 29.8149 101.587L21.8895 96.982C21.6844 96.8631 21.514 96.6924 21.3956 96.4869C21.2772 96.2815 21.2148 96.0485 21.2148 95.8114C21.2148 95.5742 21.2772 95.3413 21.3956 95.1358C21.514 94.9304 21.6844 94.7597 21.8895 94.6408L27.6992 91.2866C27.7485 91.2616 27.8055 91.2564 27.8585 91.2721C27.9115 91.2878 27.9565 91.3233 27.9842 91.3711C28.0119 91.419 28.0202 91.4756 28.0074 91.5294C27.9946 91.5832 27.9617 91.63 27.9154 91.6603L22.1088 95.0053C21.9706 95.0873 21.856 95.2039 21.7765 95.3436C21.6969 95.4833 21.6551 95.6413 21.6551 95.8021C21.6551 95.9629 21.6969 96.1209 21.7765 96.2606C21.856 96.4003 21.9706 96.5169 22.1088 96.599L30.0342 101.198C30.0608 101.212 30.0842 101.231 30.1028 101.255C30.1214 101.279 30.1348 101.306 30.1421 101.335C30.1494 101.364 30.1504 101.395 30.1451 101.424C30.1398 101.454 30.1283 101.482 30.1114 101.507C30.0928 101.54 30.0655 101.568 30.0322 101.587C29.999 101.606 29.9613 101.616 29.923 101.615Z" fill="#FDA758"/>
<path d="M39.8494 97.1675L38.1321 90.2737C38.1076 90.1787 38.0756 90.0857 38.0364 89.9957L38.5367 89.9247L37.4465 89.307C37.2177 89.1827 36.9594 89.123 36.6993 89.1344C36.4392 89.1459 36.1871 89.2279 35.9701 89.3718L28.82 93.5106C28.3291 93.832 27.9209 94.2647 27.6284 94.7734C27.336 95.2821 27.1675 95.8526 27.1367 96.4385V104.728C27.1367 105.389 27.2973 105.843 27.6278 106.001L28.6532 106.594L28.4061 105.939L28.4617 105.917C29.6385 105.355 30.0647 104.33 30.4168 103.314L31.7789 99.3758C32.131 98.3597 33.0143 97.1953 33.737 96.7721C34.4598 96.349 35.4914 96.7721 36.0226 97.6987L36.7083 98.8971C36.9176 99.2775 37.2331 99.5887 37.6163 99.7928L38.6603 100.41L38.3947 99.9966C38.6118 99.9971 38.825 99.9395 39.0124 99.8298C39.7258 99.4036 40.1088 98.2176 39.8494 97.1675Z" fill="#FDA758"/>
<path opacity="0.7" d="M39.8494 97.1675L38.1321 90.2737C38.1076 90.1787 38.0756 90.0857 38.0364 89.9957L38.5367 89.9247L37.4465 89.307C37.2177 89.1827 36.9594 89.123 36.6993 89.1344C36.4392 89.1459 36.1871 89.2279 35.9701 89.3718L28.82 93.5106C28.3291 93.832 27.9209 94.2647 27.6284 94.7734C27.336 95.2821 27.1675 95.8526 27.1367 96.4385V104.728C27.1367 105.389 27.2973 105.843 27.6278 106.001L28.6532 106.594L28.4061 105.939L28.4617 105.917C29.6385 105.355 30.0647 104.33 30.4168 103.314L31.7789 99.3758C32.131 98.3597 33.0143 97.1953 33.737 96.7721C34.4598 96.349 35.4914 96.7721 36.0226 97.6987L36.7083 98.8971C36.9176 99.2775 37.2331 99.5887 37.6163 99.7928L38.6603 100.41L38.3947 99.9966C38.6118 99.9971 38.825 99.9395 39.0124 99.8298C39.7258 99.4036 40.1088 98.2176 39.8494 97.1675Z" fill="black"/>
<path d="M38.0369 89.9957L38.5373 89.9247L37.447 89.307C37.2182 89.1827 36.9599 89.123 36.6998 89.1344C36.4397 89.1459 36.1876 89.2279 35.9706 89.3718L28.8205 93.5106C28.4211 93.7595 28.0799 94.0913 27.8198 94.4835L29.5216 95.5212L38.2253 90.6042L38.1419 90.2737C38.1144 90.1784 38.0793 90.0854 38.0369 89.9957Z" fill="#FDA758"/>
<path opacity="0.5" d="M38.0369 89.9957L38.5373 89.9247L37.447 89.307C37.2182 89.1827 36.9599 89.123 36.6998 89.1344C36.4397 89.1459 36.1876 89.2279 35.9706 89.3718L28.8205 93.5106C28.4211 93.7595 28.0799 94.0913 27.8198 94.4835L29.5216 95.5212L38.2253 90.6042L38.1419 90.2737C38.1144 90.1784 38.0793 90.0854 38.0369 89.9957Z" fill="black"/>
<path d="M40.1034 100.472C39.3714 100.895 38.3429 100.472 37.8086 99.5456L37.126 98.3472C36.5916 97.4207 35.5817 96.9975 34.8373 97.4207C34.093 97.8438 33.2312 99.0051 32.8791 100.024L31.5202 103.959C31.1681 104.975 30.7387 106.001 29.562 106.563C28.6725 106.989 28.2432 106.452 28.2432 105.377V97.0809C28.275 96.4952 28.4443 95.9253 28.7372 95.4172C29.0302 94.909 29.4386 94.477 29.9295 94.156L37.092 90.0018C37.2849 89.8667 37.5092 89.783 37.7435 89.7588C37.9778 89.7346 38.2144 89.7705 38.4309 89.8633C38.6474 89.9561 38.8367 90.1027 38.9807 90.289C39.1247 90.4754 39.2188 90.6955 39.254 90.9284L40.9713 97.8253C41.2245 98.8569 40.8385 100.049 40.1034 100.472Z" fill="#FDA758"/>
<path opacity="0.6" d="M40.1034 100.472C39.3714 100.895 38.3429 100.472 37.8086 99.5456L37.126 98.3472C36.5916 97.4207 35.5817 96.9975 34.8373 97.4207C34.093 97.8438 33.2312 99.0051 32.8791 100.024L31.5202 103.959C31.1681 104.975 30.7387 106.001 29.562 106.563C28.6725 106.989 28.2432 106.452 28.2432 105.377V97.0809C28.275 96.4952 28.4443 95.9253 28.7372 95.4172C29.0302 94.909 29.4386 94.477 29.9295 94.156L37.092 90.0018C37.2849 89.8667 37.5092 89.783 37.7435 89.7588C37.9778 89.7346 38.2144 89.7705 38.4309 89.8633C38.6474 89.9561 38.8367 90.1027 38.9807 90.289C39.1247 90.4754 39.2188 90.6955 39.254 90.9284L40.9713 97.8253C41.2245 98.8569 40.8385 100.049 40.1034 100.472Z" fill="black"/>
<path d="M37.3265 92.3894L37.5057 93.4056L38.2994 92.899L38.4755 93.9152L37.6848 94.4248L37.864 95.4409L37.0733 95.9475L36.8941 94.9313L36.1035 95.4409L35.9243 94.4217L36.715 93.9152L36.5359 92.899L37.3265 92.3894Z" fill="#263238"/>
<path d="M37.5551 92.5098L37.7342 93.5259L38.5249 93.0194L38.704 94.0355L37.9133 94.5451L38.0925 95.5613L37.3018 96.0678L37.1227 95.0517L36.332 95.5582L36.1528 94.5421L36.9435 94.0355L36.7644 93.0194L37.5551 92.5098Z" fill="#FDA758"/>
<path d="M31.3349 95.9874C31.3561 96.1305 31.3386 96.2767 31.2843 96.4108C31.23 96.5449 31.1408 96.6621 31.0261 96.7502C30.8068 96.8892 30.5906 96.775 30.5412 96.4939C30.519 96.3507 30.5361 96.2042 30.5904 96.0699C30.6448 95.9356 30.7345 95.8185 30.85 95.731C31.0662 95.592 31.2917 95.7063 31.3349 95.9874Z" fill="#263238"/>
<path d="M31.6931 98.0199C31.7152 98.1631 31.6982 98.3097 31.6438 98.444C31.5894 98.5783 31.4998 98.6954 31.3842 98.7828C31.1649 98.9218 30.9487 98.8075 30.8993 98.5296C30.8768 98.3864 30.8937 98.2397 30.9481 98.1054C31.0025 97.971 31.0924 97.8539 31.2082 97.7667C31.4244 97.6246 31.6437 97.7389 31.6931 98.0199Z" fill="#263238"/>
<path d="M32.3044 96.4942C32.3269 96.6374 32.31 96.784 32.2556 96.9184C32.2012 97.0527 32.1113 97.1698 31.9956 97.2571C31.7763 97.3991 31.5601 97.2849 31.5106 97.0038C31.4882 96.8606 31.505 96.714 31.5594 96.5796C31.6138 96.4452 31.7037 96.3282 31.8195 96.2409C32.0388 96.1019 32.255 96.2131 32.3044 96.4942Z" fill="#263238"/>
<path d="M30.7231 97.5103C30.7456 97.6535 30.7287 97.8001 30.6743 97.9345C30.6199 98.0689 30.53 98.1859 30.4143 98.2732C30.195 98.4152 29.9788 98.301 29.9293 98.0199C29.9072 97.8767 29.9242 97.7302 29.9786 97.5959C30.033 97.4616 30.1227 97.3445 30.2382 97.257C30.4575 97.118 30.6737 97.2292 30.7231 97.5103Z" fill="#263238"/>
<path d="M31.3503 95.9968C31.3725 96.14 31.3554 96.2865 31.3011 96.4208C31.2467 96.5551 31.157 96.6722 31.0415 96.7596C30.8222 96.8986 30.606 96.7874 30.5565 96.5064C30.5341 96.3632 30.5509 96.2165 30.6053 96.0822C30.6597 95.9478 30.7496 95.8307 30.8654 95.7435C31.0847 95.6014 31.2916 95.7157 31.3503 95.9968Z" fill="#263238"/>
<path d="M31.7082 98.0288C31.7307 98.1721 31.7138 98.3187 31.6594 98.453C31.605 98.5874 31.5151 98.7045 31.3994 98.7917C31.1801 98.9338 30.9639 98.8195 30.9145 98.5385C30.892 98.3953 30.9088 98.2486 30.9632 98.1143C31.0176 97.9799 31.1075 97.8628 31.2233 97.7756C31.4426 97.6366 31.6588 97.7478 31.7082 98.0288Z" fill="#263238"/>
<path d="M32.3203 96.5064C32.3422 96.6491 32.325 96.7951 32.2706 96.9289C32.2163 97.0627 32.1267 97.1792 32.0114 97.2662C31.7952 97.4083 31.5759 97.294 31.5265 97.0129C31.5051 96.8698 31.5224 96.7235 31.5767 96.5893C31.631 96.4551 31.7204 96.338 31.8354 96.25C32.0547 96.1111 32.2709 96.2253 32.3203 96.5064Z" fill="#263238"/>
<path d="M30.7385 97.5225C30.7606 97.6657 30.7436 97.8122 30.6892 97.9465C30.6349 98.0808 30.5452 98.1979 30.4297 98.2854C30.2135 98.4244 29.9942 98.3101 29.9447 98.029C29.9236 97.8859 29.9411 97.7397 29.9954 97.6056C30.0497 97.4715 30.1388 97.3543 30.2536 97.2662C30.4729 97.1272 30.6891 97.2414 30.7385 97.5225Z" fill="#263238"/>
<path d="M31.3652 96.0061C31.3877 96.1494 31.3708 96.296 31.3164 96.4304C31.262 96.5647 31.1721 96.6818 31.0564 96.769C30.8402 96.9111 30.6209 96.7968 30.5714 96.5158C30.55 96.3726 30.5673 96.2263 30.6216 96.0921C30.676 95.9579 30.7653 95.8408 30.8803 95.7529C31.0996 95.6139 31.3158 95.7251 31.3652 96.0061Z" fill="#263238"/>
<path d="M31.7241 98.0416C31.746 98.1843 31.7288 98.3303 31.6745 98.4641C31.6201 98.5978 31.5305 98.7144 31.4152 98.8014C31.199 98.9434 30.9797 98.8292 30.9303 98.5481C30.9089 98.4049 30.9262 98.2586 30.9805 98.1244C31.0349 97.9903 31.1242 97.8731 31.2392 97.7852C31.4585 97.6462 31.6747 97.7605 31.7241 98.0416Z" fill="#263238"/>
<path d="M32.3386 96.5155C32.3601 96.6587 32.3427 96.805 32.2884 96.9392C32.2341 97.0734 32.1447 97.1905 32.0297 97.2784C31.8104 97.4174 31.5942 97.3031 31.5448 97.0252C31.5224 96.882 31.5392 96.7353 31.5936 96.601C31.648 96.4666 31.7379 96.3495 31.8537 96.2623C32.0699 96.1202 32.2892 96.2345 32.3386 96.5155Z" fill="#263238"/>
<path d="M30.7571 97.5319C30.7785 97.6751 30.7612 97.8214 30.7069 97.9556C30.6525 98.0897 30.5632 98.2069 30.4482 98.2948C30.2289 98.4338 30.0127 98.3226 29.9633 98.0415C29.9408 97.8983 29.9577 97.7517 30.0121 97.6173C30.0665 97.4829 30.1564 97.3659 30.2721 97.2786C30.4883 97.1366 30.7076 97.2508 30.7571 97.5319Z" fill="#263238"/>
<path d="M31.3841 96.0183C31.4055 96.1615 31.3882 96.3078 31.3339 96.4419C31.2795 96.5761 31.1902 96.6933 31.0752 96.7812C30.8559 96.9202 30.6397 96.8059 30.5903 96.5248C30.5684 96.3821 30.5856 96.2361 30.6399 96.1023C30.6943 95.9686 30.7839 95.852 30.8992 95.765C31.1154 95.623 31.3347 95.7465 31.3841 96.0183Z" fill="#263238"/>
<path d="M31.7424 98.0507C31.7639 98.1939 31.7465 98.3402 31.6922 98.4743C31.6379 98.6085 31.5486 98.7257 31.4335 98.8136C31.2143 98.9526 30.9981 98.8414 30.9486 98.5603C30.9262 98.4171 30.943 98.2705 30.9974 98.1361C31.0518 98.0017 31.1417 97.8847 31.2575 97.7974C31.4737 97.6554 31.693 97.7696 31.7424 98.0507Z" fill="#263238"/>
<path d="M32.3545 96.5252C32.3769 96.6684 32.3601 96.815 32.3057 96.9494C32.2513 97.0838 32.1614 97.2008 32.0456 97.2881C31.8263 97.4301 31.6101 97.3159 31.5607 97.0348C31.5386 96.8916 31.5556 96.7451 31.61 96.6108C31.6643 96.4765 31.754 96.3594 31.8696 96.2719C32.0888 96.1329 32.305 96.2441 32.3545 96.5252Z" fill="#263238"/>
<path d="M30.7729 97.5413C30.7954 97.6845 30.7785 97.8311 30.7241 97.9655C30.6697 98.0999 30.5798 98.2169 30.4641 98.3042C30.2448 98.4463 30.0286 98.332 29.9792 98.0509C29.957 97.9077 29.974 97.7612 30.0284 97.6269C30.0828 97.4926 30.1725 97.3755 30.288 97.288C30.5073 97.149 30.7235 97.2602 30.7729 97.5413Z" fill="#263238"/>
<path d="M31.3996 96.0278C31.4218 96.171 31.4047 96.3175 31.3504 96.4518C31.296 96.5861 31.2063 96.7032 31.0908 96.7906C30.8715 96.9296 30.6553 96.8184 30.6059 96.5374C30.5834 96.3942 30.6003 96.2475 30.6547 96.1132C30.7091 95.9788 30.7989 95.8617 30.9147 95.7745C31.134 95.6324 31.3502 95.7467 31.3996 96.0278Z" fill="#263238"/>
<path d="M31.7583 98.0598C31.7807 98.2031 31.7639 98.3497 31.7095 98.4841C31.6551 98.6184 31.5652 98.7355 31.4494 98.8227C31.2301 98.9648 31.0139 98.8505 30.9645 98.5695C30.9424 98.4263 30.9594 98.2798 31.0138 98.1454C31.0681 98.0111 31.1578 97.8941 31.2734 97.8066C31.4927 97.6676 31.7089 97.7788 31.7583 98.0598Z" fill="#263238"/>
<path d="M32.3691 96.5372C32.3909 96.6803 32.3737 96.8268 32.3194 96.961C32.265 97.0952 32.1755 97.2124 32.0603 97.3C31.841 97.439 31.6248 97.3248 31.5753 97.0437C31.5532 96.9005 31.5702 96.754 31.6246 96.6197C31.679 96.4854 31.7687 96.3683 31.8842 96.2808C32.1035 96.1418 32.3197 96.2561 32.3691 96.5372Z" fill="#263238"/>
<path d="M30.7884 97.5534C30.8105 97.6966 30.7935 97.8431 30.7391 97.9774C30.6847 98.1117 30.595 98.2288 30.4795 98.3163C30.2633 98.4553 30.044 98.341 29.9946 98.0599C29.9734 97.9172 29.9909 97.7715 30.0452 97.6378C30.0995 97.5042 30.1887 97.3876 30.3035 97.3001C30.5228 97.1581 30.739 97.2723 30.7884 97.5534Z" fill="#263238"/>
<path d="M31.415 96.0369C31.4375 96.1801 31.4206 96.3267 31.3662 96.4611C31.3118 96.5955 31.2219 96.7125 31.1062 96.7998C30.89 96.9419 30.6707 96.8276 30.6212 96.5465C30.5998 96.4034 30.6171 96.2571 30.6714 96.1229C30.7258 95.9887 30.8151 95.8715 30.9301 95.7836C31.1494 95.6446 31.3656 95.7466 31.415 96.0369Z" fill="#263238"/>
<path d="M31.7734 98.0726C31.7952 98.2157 31.778 98.3621 31.7237 98.4964C31.6693 98.6306 31.5798 98.7478 31.4646 98.8354C31.2484 98.9744 31.0291 98.8602 30.9796 98.5791C30.9582 98.4359 30.9755 98.2896 31.0298 98.1554C31.0842 98.0213 31.1735 97.9041 31.2885 97.8162C31.5078 97.6772 31.724 97.7915 31.7734 98.0726Z" fill="#263238"/>
<path d="M32.385 96.5468C32.4071 96.69 32.3901 96.8365 32.3357 96.9708C32.2813 97.1051 32.1916 97.2222 32.0761 97.3097C31.8599 97.4487 31.6406 97.3375 31.5912 97.0564C31.5694 96.9132 31.5866 96.7668 31.6409 96.6326C31.6953 96.4984 31.7848 96.3812 31.9001 96.2935C32.1194 96.1515 32.3356 96.2657 32.385 96.5468Z" fill="#263238"/>
<path d="M30.8064 97.5627C30.8278 97.7059 30.8105 97.8522 30.7562 97.9864C30.7018 98.1206 30.6125 98.2377 30.4975 98.3256C30.2782 98.4646 30.062 98.3534 30.0126 98.0724C29.9901 97.9291 30.007 97.7825 30.0614 97.6481C30.1158 97.5138 30.2057 97.3967 30.3215 97.3095C30.5377 97.1674 30.757 97.2909 30.8064 97.5627Z" fill="#263238"/>
<path d="M31.4333 96.0555C31.4548 96.1987 31.4374 96.345 31.3831 96.4792C31.3288 96.6134 31.2395 96.7305 31.1245 96.8184C30.9052 96.9574 30.689 96.8431 30.6396 96.5652C30.6171 96.4219 30.6339 96.2753 30.6883 96.1409C30.7427 96.0066 30.8326 95.8895 30.9484 95.8023C31.1646 95.654 31.3839 95.7683 31.4333 96.0555Z" fill="#263238"/>
<path d="M31.7917 98.0815C31.8132 98.2246 31.7958 98.3709 31.7415 98.5051C31.6872 98.6393 31.5979 98.7564 31.4829 98.8444C31.2636 98.9833 31.0474 98.8722 30.998 98.5911C30.9755 98.4479 30.9923 98.3012 31.0467 98.1669C31.1011 98.0325 31.191 97.9154 31.3068 97.8282C31.523 97.6861 31.7423 97.8004 31.7917 98.0815Z" fill="#263238"/>
<path d="M32.4033 96.5557C32.4251 96.6989 32.4079 96.8453 32.3536 96.9795C32.2992 97.1138 32.2097 97.2309 32.0944 97.3186C31.8751 97.4607 31.6589 97.3464 31.6095 97.0653C31.5874 96.9221 31.6044 96.7756 31.6588 96.6413C31.7132 96.507 31.8029 96.3899 31.9184 96.3024C32.1346 96.1634 32.3539 96.2746 32.4033 96.5557Z" fill="#263238"/>
<path d="M30.8217 97.5718C30.8442 97.715 30.8274 97.8617 30.773 97.996C30.7186 98.1304 30.6287 98.2475 30.5129 98.3347C30.2936 98.4768 30.0774 98.3625 30.028 98.0814C30.0058 97.9382 30.0229 97.7917 30.0772 97.6574C30.1316 97.5231 30.2213 97.406 30.3368 97.3185C30.5561 97.1796 30.7723 97.2908 30.8217 97.5718Z" fill="#263238"/>
<path d="M31.4494 96.0554C31.4719 96.1986 31.455 96.3452 31.4006 96.4796C31.3462 96.614 31.2563 96.731 31.1406 96.8183C30.9213 96.9604 30.7051 96.8461 30.6557 96.565C30.6332 96.4218 30.6501 96.2752 30.7045 96.1408C30.7589 96.0064 30.8488 95.8894 30.9645 95.8021C31.1838 95.6631 31.4 95.7774 31.4494 96.0554Z" fill="#263238"/>
<path d="M31.8071 98.0909C31.8296 98.2341 31.8127 98.3807 31.7583 98.5151C31.7039 98.6494 31.614 98.7665 31.4982 98.8537C31.2789 98.9958 31.0627 98.8815 31.0133 98.6005C30.9912 98.4573 31.0082 98.3108 31.0626 98.1765C31.117 98.0422 31.2067 97.9251 31.3222 97.8376C31.5415 97.6986 31.7577 97.8098 31.8071 98.0909Z" fill="#263238"/>
<path d="M32.4187 96.5683C32.4409 96.7115 32.4238 96.858 32.3695 96.9923C32.3151 97.1266 32.2254 97.2437 32.1099 97.3312C31.8906 97.4702 31.6744 97.3559 31.625 97.0748C31.6031 96.9321 31.6202 96.7861 31.6746 96.6523C31.729 96.5186 31.8186 96.402 31.9338 96.315C32.1531 96.1729 32.3693 96.2872 32.4187 96.5683Z" fill="#263238"/>
<path d="M30.8376 97.5997C30.8598 97.7429 30.8427 97.8894 30.7884 98.0238C30.734 98.1581 30.6443 98.2751 30.5288 98.3626C30.3126 98.5016 30.0933 98.3873 30.0439 98.1093C30.0214 97.9661 30.0382 97.8195 30.0926 97.6851C30.147 97.5508 30.2369 97.4337 30.3527 97.3465C30.572 97.1889 30.7882 97.2909 30.8376 97.5997Z" fill="#263238"/>
<path d="M31.4643 96.0711C31.4862 96.2138 31.4691 96.3598 31.4147 96.4936C31.3603 96.6274 31.2707 96.7439 31.1555 96.8309C30.9362 96.973 30.72 96.8587 30.6706 96.5776C30.6484 96.4344 30.6654 96.2879 30.7198 96.1536C30.7742 96.0193 30.8639 95.9022 30.9794 95.8147C31.1987 95.6758 31.4149 95.79 31.4643 96.0711Z" fill="#263238"/>
<path d="M31.823 98.1032C31.8452 98.2464 31.8281 98.3929 31.7738 98.5272C31.7194 98.6615 31.6297 98.7786 31.5142 98.8661C31.298 99.0051 31.0787 98.8908 31.0293 98.6097C31.0074 98.467 31.0245 98.321 31.0789 98.1872C31.1333 98.0535 31.2229 97.9369 31.3381 97.8499C31.5574 97.7079 31.7736 97.8221 31.823 98.1032Z" fill="#263238"/>
<path d="M32.4343 96.5776C32.4564 96.7208 32.4394 96.8673 32.385 97.0016C32.3307 97.1359 32.241 97.253 32.1254 97.3404C31.9092 97.4794 31.6899 97.3682 31.6405 97.0872C31.6187 96.944 31.6359 96.7976 31.6903 96.6634C31.7446 96.5291 31.8341 96.412 31.9494 96.3243C32.1687 96.1822 32.3849 96.2965 32.4343 96.5776Z" fill="#263238"/>
<path d="M30.8532 97.5997C30.8757 97.7429 30.8589 97.8896 30.8045 98.0239C30.7501 98.1583 30.6602 98.2754 30.5444 98.3626C30.3282 98.5047 30.112 98.3904 30.0595 98.1093C30.0377 97.9662 30.0549 97.8198 30.1092 97.6855C30.1636 97.5513 30.2531 97.4341 30.3683 97.3465C30.5876 97.1982 30.8038 97.3125 30.8532 97.5997Z" fill="#263238"/>
<path d="M31.4802 96.0802C31.5023 96.2234 31.4853 96.37 31.4309 96.5043C31.3766 96.6386 31.2869 96.7557 31.1713 96.8431C30.9551 96.9821 30.7358 96.8678 30.6864 96.5899C30.6646 96.4467 30.6818 96.3003 30.7362 96.166C30.7905 96.0318 30.88 95.9147 30.9953 95.827C31.2146 95.6849 31.4308 95.7992 31.4802 96.0802Z" fill="#263238"/>
<path d="M31.8379 98.1122C31.8601 98.2554 31.8431 98.4019 31.7887 98.5362C31.7343 98.6706 31.6446 98.7877 31.5291 98.8751C31.3129 99.0141 31.0967 98.9029 31.0473 98.6218C31.0248 98.4786 31.0417 98.332 31.0961 98.1976C31.1505 98.0633 31.2404 97.9462 31.3561 97.859C31.5723 97.7169 31.7885 97.8312 31.8379 98.1122Z" fill="#263238"/>
<path d="M32.4526 96.5869C32.4744 96.7301 32.4572 96.8765 32.4029 97.0107C32.3485 97.145 32.259 97.2621 32.1437 97.3498C31.9245 97.4918 31.7083 97.3776 31.6588 97.0965C31.6367 96.9533 31.6537 96.8068 31.7081 96.6725C31.7625 96.5382 31.8522 96.4211 31.9677 96.3336C32.1839 96.1946 32.4032 96.3089 32.4526 96.5869Z" fill="#263238"/>
<path d="M30.8716 97.5998C30.8928 97.7425 30.8753 97.8882 30.821 98.0219C30.7666 98.1555 30.6774 98.2722 30.5627 98.3596C30.3434 98.5017 30.1272 98.3874 30.0778 98.1063C30.0557 97.9631 30.0727 97.8166 30.127 97.6823C30.1814 97.548 30.2711 97.4309 30.3866 97.3434C30.6028 97.2106 30.8221 97.3249 30.8716 97.5998Z" fill="#263238"/>
<path d="M31.4985 96.0894C31.5203 96.2326 31.5031 96.379 31.4488 96.5132C31.3944 96.6475 31.3049 96.7646 31.1896 96.8523C30.9704 96.9943 30.7542 96.8801 30.7047 96.599C30.6826 96.4558 30.6996 96.3093 30.754 96.175C30.8084 96.0407 30.8981 95.9236 31.0136 95.8361C31.2298 95.6971 31.4491 95.8083 31.4985 96.0894Z" fill="#263238"/>
<path d="M31.8569 98.1216C31.8787 98.2647 31.8615 98.4111 31.8072 98.5454C31.7528 98.6796 31.6633 98.7967 31.548 98.8844C31.3288 99.0265 31.1126 98.9122 31.0631 98.6312C31.041 98.488 31.058 98.3415 31.1124 98.2072C31.1668 98.0729 31.2565 97.9558 31.372 97.8683C31.6006 97.7293 31.8075 97.8436 31.8569 98.1216Z" fill="#263238"/>
<path d="M32.468 96.599C32.4901 96.7422 32.4731 96.8888 32.4187 97.0231C32.3644 97.1574 32.2746 97.2745 32.1591 97.3619C31.9398 97.5009 31.7236 97.3866 31.6742 97.1087C31.6517 96.9655 31.6686 96.8188 31.723 96.6845C31.7774 96.5501 31.8673 96.433 31.9831 96.3458C32.2178 96.2037 32.4186 96.318 32.468 96.599Z" fill="#263238"/>
<path d="M30.8865 97.6152C30.9086 97.7584 30.8916 97.9049 30.8372 98.0392C30.7828 98.1735 30.6931 98.2906 30.5776 98.378C30.3583 98.517 30.1421 98.4028 30.0927 98.1248C30.0702 97.9816 30.0871 97.8349 30.1415 97.7006C30.1959 97.5662 30.2858 97.4491 30.4015 97.3619C30.6208 97.2198 30.837 97.3341 30.8865 97.6152Z" fill="#263238"/>
<path d="M31.5136 96.1019C31.5354 96.245 31.5183 96.3914 31.4639 96.5257C31.4096 96.6599 31.32 96.7771 31.2048 96.8647C30.9855 97.0037 30.7693 96.8895 30.7199 96.6084C30.6977 96.4652 30.7148 96.3187 30.7691 96.1844C30.8235 96.0501 30.9132 95.933 31.0287 95.8455C31.248 95.7065 31.4642 95.8208 31.5136 96.1019Z" fill="#263238"/>
<path d="M31.8718 98.1342C31.8939 98.2774 31.8769 98.4239 31.8225 98.5582C31.7682 98.6925 31.6785 98.8096 31.5629 98.8971C31.3437 99.0361 31.1274 98.9218 31.078 98.6438C31.0556 98.5006 31.0724 98.354 31.1268 98.2196C31.1812 98.0852 31.2711 97.9682 31.3869 97.8809C31.6 97.7389 31.8224 97.8531 31.8718 98.1342Z" fill="#263238"/>
<path d="M32.4836 96.6086C32.5061 96.7518 32.4892 96.8984 32.4348 97.0328C32.3804 97.1672 32.2905 97.2842 32.1748 97.3715C31.9586 97.5135 31.7393 97.3992 31.6898 97.1182C31.668 96.975 31.6852 96.8286 31.7396 96.6944C31.7939 96.5601 31.8834 96.443 31.9987 96.3553C32.218 96.2132 32.4342 96.3275 32.4836 96.6086Z" fill="#263238"/>
<path d="M30.9023 97.6245C30.9248 97.7678 30.9079 97.9144 30.8535 98.0488C30.7991 98.1831 30.7092 98.3002 30.5935 98.3874C30.3773 98.5295 30.158 98.4152 30.1086 98.1342C30.0871 97.991 30.1044 97.8447 30.1588 97.7105C30.2131 97.5763 30.3024 97.4592 30.4174 97.3713C30.6367 97.2323 30.8529 97.3435 30.9023 97.6245Z" fill="#263238"/>
<path d="M37.3268 92.3894L37.5554 92.5099L36.7647 93.0195L36.5361 92.899L37.3268 92.3894Z" fill="#263238"/>
<path d="M36.715 93.915L36.9436 94.0355L36.1529 94.542L35.9243 94.4216L36.715 93.915Z" fill="#263238"/>
<path d="M37.7342 93.5259L37.6909 93.2881L38.2994 92.8989L38.5248 93.0194L37.7342 93.5259Z" fill="#263238"/>
<path d="M35.9243 94.4214L36.1529 94.5418L36.332 95.558L36.1035 95.4406L35.9243 94.4214Z" fill="#263238"/>
<path d="M37.0729 95.9474L37.3015 96.0679L37.1223 95.0518L36.937 95.1722L37.0729 95.9474Z" fill="#263238"/>
<path d="M31.5136 96.1019C31.5354 96.245 31.5183 96.3914 31.4639 96.5257C31.4096 96.6599 31.32 96.7771 31.2048 96.8647C30.9855 97.0037 30.7693 96.8895 30.7199 96.6084C30.6977 96.4652 30.7148 96.3187 30.7691 96.1844C30.8235 96.0501 30.9132 95.933 31.0287 95.8455C31.248 95.7065 31.4642 95.8208 31.5136 96.1019Z" fill="#FDA758"/>
<path d="M31.8718 98.1342C31.8939 98.2774 31.8769 98.4239 31.8225 98.5582C31.7682 98.6925 31.6785 98.8096 31.5629 98.8971C31.3437 99.0361 31.1274 98.9218 31.078 98.6438C31.0556 98.5006 31.0724 98.354 31.1268 98.2196C31.1812 98.0852 31.2711 97.9682 31.3869 97.8809C31.6 97.7389 31.8224 97.8531 31.8718 98.1342Z" fill="#FDA758"/>
<path d="M32.4836 96.6086C32.5061 96.7518 32.4892 96.8984 32.4348 97.0328C32.3804 97.1672 32.2905 97.2842 32.1748 97.3715C31.9586 97.5135 31.7393 97.3992 31.6898 97.1182C31.668 96.975 31.6852 96.8286 31.7396 96.6944C31.7939 96.5601 31.8834 96.443 31.9987 96.3553C32.218 96.2132 32.4342 96.3275 32.4836 96.6086Z" fill="#FDA758"/>
<path d="M30.9023 97.6245C30.9248 97.7678 30.9079 97.9144 30.8535 98.0488C30.7991 98.1831 30.7092 98.3002 30.5935 98.3874C30.3773 98.5295 30.158 98.4152 30.1086 98.1342C30.0871 97.991 30.1044 97.8447 30.1588 97.7105C30.2131 97.5763 30.3024 97.4592 30.4174 97.3713C30.6367 97.2323 30.8529 97.3435 30.9023 97.6245Z" fill="#FDA758"/>
<path d="M39.1115 9.78803L35.7912 11.703C35.8096 11.5575 35.8189 11.411 35.819 11.2644V10.3038C35.819 8.59275 34.6175 7.89781 33.1381 8.75953C32.4985 9.15138 31.9524 9.67848 31.5382 10.3038C31.2942 8.14181 29.6078 7.35113 27.557 8.53406C25.3394 9.81583 23.5418 12.9291 23.5418 15.4865V16.9258C23.5277 17.5002 23.6439 18.0705 23.8816 18.5936L21.1235 20.1842C20.6903 20.4671 20.3298 20.848 20.0712 21.296C19.8126 21.744 19.6631 22.2467 19.6348 22.7632C19.6348 23.7114 20.3019 24.0975 21.1235 23.6219L39.1115 13.238C39.5446 12.9551 39.9051 12.5743 40.1637 12.1262C40.4223 11.6782 40.5719 11.1756 40.6002 10.659C40.6002 9.69847 39.9392 9.31239 39.1115 9.78803Z" fill="#F0F0F0"/>
<path d="M108.095 96.0896L107.478 95.7406L107.916 95.543C107.916 95.543 108.259 95.6356 108.268 95.6511C108.265 95.7308 108.257 95.8103 108.244 95.8889L108.095 96.0896Z" fill="#E0E0E0"/>
<path d="M108.095 96.0896L107.478 95.7406L107.916 95.543C107.916 95.543 108.259 95.6356 108.268 95.6511C108.265 95.7308 108.257 95.8103 108.244 95.8889L108.095 96.0896Z" fill="#FDA758"/>
<path opacity="0.1" d="M108.095 96.0896L107.478 95.7406L107.916 95.543C107.916 95.543 108.259 95.6356 108.268 95.6511C108.265 95.7308 108.257 95.8103 108.244 95.8889L108.095 96.0896Z" fill="white"/>
<path d="M85.1098 107.669C85.3836 107.807 85.6862 107.88 85.9931 107.88C86.3 107.88 86.6027 107.807 86.8765 107.669L106.687 96.2408L77.0362 79.1177L76.3444 78.7192L56.5341 90.147C56.0492 90.4281 56.0492 90.8883 56.5341 91.1663L85.1098 107.669Z" fill="#FDA758"/>
<path opacity="0.8" d="M85.1098 107.669C85.3836 107.807 85.6862 107.88 85.9931 107.88C86.3 107.88 86.6027 107.807 86.8765 107.669L106.687 96.2408L77.0362 79.1177L76.3444 78.7192L56.5341 90.147C56.0492 90.4281 56.0492 90.8883 56.5341 91.1663L85.1098 107.669Z" fill="white"/>
<path d="M92.5507 86.0608L99.4599 90.0358L103.932 87.4537L109.124 90.462V94.2023C109.124 94.6564 108.614 95.3019 108.429 95.1969C108.086 95.2797 107.753 95.3977 107.435 95.549C106.915 95.8443 106.433 96.2011 105.998 96.6114L90.123 87.4476L92.5507 86.0608Z" fill="#E0E0E0"/>
<path d="M92.5507 86.0608L99.4599 90.0358L103.932 87.4537L109.124 90.462V94.2023C109.124 94.6564 108.614 95.3019 108.429 95.1969C108.086 95.2797 107.753 95.3977 107.435 95.549C106.915 95.8443 106.433 96.2011 105.998 96.6114L90.123 87.4476L92.5507 86.0608Z" fill="#FDA758"/>
<path opacity="0.1" d="M92.5507 86.0608L99.4599 90.0358L103.932 87.4537L109.124 90.462V94.2023C109.124 94.6564 108.614 95.3019 108.429 95.1969C108.086 95.2797 107.753 95.3977 107.435 95.549C106.915 95.8443 106.433 96.2011 105.998 96.6114L90.123 87.4476L92.5507 86.0608Z" fill="white"/>
<path d="M86.8861 107.666L88.0814 106.974L106.017 96.6207C106.03 96.3866 106.116 96.1623 106.261 95.9783C106.473 95.6968 106.74 95.4614 107.045 95.2865C107.301 95.1298 107.592 95.0396 107.892 95.0239C108.092 95.0212 108.288 95.0853 108.448 95.2062C108.681 94.7478 108.795 94.2378 108.778 93.7236H109.458C109.458 94.6502 109.149 95.6015 108.769 95.8177L108.426 96.0185C108.231 96.1296 108.077 96.1358 108.077 96.0185V95.8362C108.077 95.6324 107.768 95.6416 107.385 95.864C107.002 96.0864 106.696 96.4261 106.696 96.63V96.8153C106.696 96.9203 106.431 97.1551 106.11 97.3404L88.764 107.357L86.8861 108.438C86.6143 108.578 86.3119 108.649 86.0059 108.645V107.86C86.3112 107.873 86.6145 107.806 86.8861 107.666Z" fill="#FDA758"/>
<path opacity="0.6" d="M86.8861 107.666L88.0814 106.974L106.017 96.6207C106.03 96.3866 106.116 96.1623 106.261 95.9783C106.473 95.6968 106.74 95.4614 107.045 95.2865C107.301 95.1298 107.592 95.0396 107.892 95.0239C108.092 95.0212 108.288 95.0853 108.448 95.2062C108.681 94.7478 108.795 94.2378 108.778 93.7236H109.458C109.458 94.6502 109.149 95.6015 108.769 95.8177L108.426 96.0185C108.231 96.1296 108.077 96.1358 108.077 96.0185V95.8362C108.077 95.6324 107.768 95.6416 107.385 95.864C107.002 96.0864 106.696 96.4261 106.696 96.63V96.8153C106.696 96.9203 106.431 97.1551 106.11 97.3404L88.764 107.357L86.8861 108.438C86.6143 108.578 86.3119 108.649 86.0059 108.645V107.86C86.3112 107.873 86.6145 107.806 86.8861 107.666Z" fill="white"/>
<path d="M56.1641 90.6414V91.4413C56.1743 91.5481 56.2121 91.6504 56.2738 91.7381C56.3356 91.8259 56.4191 91.896 56.5162 91.9417L83.2233 107.36L85.098 108.441C85.3699 108.582 85.6723 108.653 85.9783 108.648V107.863C85.6703 107.871 85.3657 107.797 85.095 107.65L83.9028 106.962L56.5162 91.1448C56.4187 91.0989 56.3349 91.0283 56.2731 90.94C56.2113 90.8516 56.1737 90.7487 56.1641 90.6414Z" fill="#FDA758"/>
<path opacity="0.1" d="M56.1641 90.6414V91.4413C56.1743 91.5481 56.2121 91.6504 56.2738 91.7381C56.3356 91.8259 56.4191 91.896 56.5162 91.9417L83.2233 107.36L85.098 108.441C85.3699 108.582 85.6723 108.653 85.9783 108.648V107.863C85.6703 107.871 85.3657 107.797 85.095 107.65L83.9028 106.962L56.5162 91.1448C56.4187 91.0989 56.3349 91.0283 56.2731 90.94C56.2113 90.8516 56.1737 90.7487 56.1641 90.6414Z" fill="white"/>
<path d="M85.9932 102.591V107.175C86.1976 107.181 86.4 107.133 86.58 107.036L88.742 105.782L105.294 96.2257V91.4446L85.9932 102.591Z" fill="white"/>
<path d="M57.0254 86.438V89.9621C57.0362 90.1661 57.095 90.3648 57.197 90.5418C57.2989 90.7189 57.4412 90.8695 57.6122 90.9813L83.2476 105.776L85.4096 107.03C85.5897 107.126 85.792 107.174 85.9964 107.169V103.076L57.0254 86.438Z" fill="#F0F0F0"/>
<path d="M105.306 96.2194C105.323 95.9849 105.41 95.7609 105.556 95.577C105.769 95.2972 106.036 95.063 106.341 94.8882C106.595 94.7293 106.885 94.6379 107.184 94.6226C107.385 94.621 107.581 94.685 107.743 94.8048V90.033L105.312 91.4383L105.306 96.2194Z" fill="#455A64"/>
<path d="M106.279 94.9281C105.998 95.0944 105.752 95.3149 105.556 95.5767C105.41 95.7606 105.323 95.9846 105.306 96.2192V91.6604H106.276L106.279 94.9281Z" fill="#F5F5F5"/>
<path d="M77.0303 73.5089L106.681 90.6321V91.0305C106.681 91.2498 106.99 91.3393 107.37 91.1108C107.749 90.8822 108.061 90.6166 108.061 90.2367L108.098 89.8599L77.8827 72.4155L77.7623 72.3445C77.7307 72.4003 77.7127 72.4627 77.7098 72.5267V72.712C77.7159 72.9406 77.4102 73.2958 77.0303 73.5089Z" fill="#FDA758"/>
<path opacity="0.6" d="M77.0303 73.5089L106.681 90.6321V91.0305C106.681 91.2498 106.99 91.3393 107.37 91.1108C107.749 90.8822 108.061 90.6166 108.061 90.2367L108.098 89.8599L77.8827 72.4155L77.7623 72.3445C77.7307 72.4003 77.7127 72.4627 77.7098 72.5267V72.712C77.7159 72.9406 77.4102 73.2958 77.0303 73.5089Z" fill="white"/>
<path d="M86.8862 102.082L106.258 90.8946C106.502 90.768 106.727 90.663 106.823 90.7124L106.697 90.6414L77.046 73.5182L76.7001 73.3174C76.5446 73.2732 76.3815 73.2627 76.2217 73.2867C76.0619 73.3107 75.9091 73.3685 75.7735 73.4564L56.5531 84.5568C56.0682 84.8379 56.0682 85.295 56.5531 85.5761L85.135 102.082C85.4068 102.218 85.7066 102.289 86.0106 102.289C86.3146 102.289 86.6144 102.218 86.8862 102.082Z" fill="#FDA758"/>
<path opacity="0.8" d="M86.8862 102.082L106.258 90.8946C106.502 90.768 106.727 90.663 106.823 90.7124L106.697 90.6414L77.046 73.5182L76.7001 73.3174C76.5446 73.2732 76.3815 73.2627 76.2217 73.2867C76.0619 73.3107 75.9091 73.3685 75.7735 73.4564L56.5531 84.5568C56.0682 84.8379 56.0682 85.295 56.5531 85.5761L85.135 102.082C85.4068 102.218 85.7066 102.289 86.0106 102.289C86.3146 102.289 86.6144 102.218 86.8862 102.082Z" fill="white"/>
<path d="M77.7686 72.3538L77.889 72.4249L108.105 89.8785C108.12 89.8463 108.142 89.8179 108.17 89.7951L108.272 89.7364L108.491 89.6129L108.76 89.4554C108.812 89.4207 108.874 89.4049 108.936 89.4105C108.999 89.4161 109.057 89.4429 109.102 89.4863C109.115 89.4948 109.127 89.5052 109.136 89.5171C109.173 89.5543 109.203 89.5971 109.226 89.6438C109.259 89.6973 109.286 89.7543 109.306 89.8137C109.33 89.8772 109.349 89.9422 109.365 90.0082C109.383 90.0855 109.396 90.1596 109.411 90.2399C109.42 90.2858 109.425 90.3322 109.427 90.3789C109.427 90.4159 109.427 90.4499 109.427 90.4931C109.427 90.5364 109.427 90.6661 109.427 90.7557V89.9063C109.395 89.6273 109.298 89.3595 109.145 89.1241C108.992 88.8888 108.786 88.6924 108.543 88.5504L79.9584 72.045C79.7229 71.906 79.4584 71.8233 79.1857 71.8035C78.913 71.7837 78.6394 71.8272 78.3863 71.9307L78.0249 72.1407L77.8705 72.2272C77.8258 72.2595 77.7906 72.3033 77.7686 72.3538Z" fill="#FDA758"/>
<path opacity="0.8" d="M77.7686 72.3538L77.889 72.4249L108.105 89.8785C108.12 89.8463 108.142 89.8179 108.17 89.7951L108.272 89.7364L108.491 89.6129L108.76 89.4554C108.812 89.4207 108.874 89.4049 108.936 89.4105C108.999 89.4161 109.057 89.4429 109.102 89.4863C109.115 89.4948 109.127 89.5052 109.136 89.5171C109.173 89.5543 109.203 89.5971 109.226 89.6438C109.259 89.6973 109.286 89.7543 109.306 89.8137C109.33 89.8772 109.349 89.9422 109.365 90.0082C109.383 90.0855 109.396 90.1596 109.411 90.2399C109.42 90.2858 109.425 90.3322 109.427 90.3789C109.427 90.4159 109.427 90.4499 109.427 90.4931C109.427 90.5364 109.427 90.6661 109.427 90.7557V89.9063C109.395 89.6273 109.298 89.3595 109.145 89.1241C108.992 88.8888 108.786 88.6924 108.543 88.5504L79.9584 72.045C79.7229 71.906 79.4584 71.8233 79.1857 71.8035C78.913 71.7837 78.6394 71.8272 78.3863 71.9307L78.0249 72.1407L77.8705 72.2272C77.8258 72.2595 77.7906 72.3033 77.7686 72.3538Z" fill="white"/>
<path d="M86.8863 102.085L88.0847 101.39L101.863 93.4397L106.261 90.9008C106.57 90.7155 106.829 90.6507 106.845 90.7464V90.9441C106.845 91.1665 107.154 91.1665 107.534 90.9441C107.674 90.8828 107.798 90.7876 107.893 90.6668C107.988 90.546 108.051 90.4036 108.077 90.2522V90.036C108.073 89.9878 108.079 89.9392 108.097 89.8942C108.115 89.8491 108.143 89.8088 108.179 89.7766L108.281 89.7179L108.5 89.5944L108.769 89.4368C108.821 89.4022 108.884 89.3864 108.946 89.392C109.008 89.3976 109.067 89.4243 109.112 89.4677C109.125 89.4763 109.136 89.4867 109.146 89.4986C109.169 89.5227 109.189 89.5497 109.204 89.5789C109.218 89.5923 109.228 89.608 109.235 89.6252C109.268 89.6788 109.295 89.7357 109.316 89.7951C109.339 89.8587 109.359 89.9237 109.374 89.9897C109.393 90.0669 109.405 90.141 109.421 90.2213C109.429 90.2673 109.434 90.3137 109.436 90.3603C109.436 90.3974 109.436 90.4314 109.436 90.4746C109.436 90.5178 109.436 90.6476 109.436 90.7371V93.7146H108.757V90.7371C108.757 90.6661 108.757 90.5951 108.757 90.5271L108.738 90.3572C108.74 90.3522 108.74 90.3468 108.738 90.3418C108.676 90.8823 108.161 91.3641 107.713 91.6174C107.464 91.7743 107.179 91.8637 106.885 91.8768C106.658 91.8797 106.439 91.7995 106.267 91.6514L106.205 91.6853L106.088 91.7564L88.7425 101.773L86.8863 102.866C86.6188 103.003 86.3219 103.072 86.0215 103.067V102.282C86.3216 102.289 86.6187 102.221 86.8863 102.085Z" fill="#FDA758"/>
<path opacity="0.6" d="M86.8863 102.085L88.0847 101.39L101.863 93.4397L106.261 90.9008C106.57 90.7155 106.829 90.6507 106.845 90.7464V90.9441C106.845 91.1665 107.154 91.1665 107.534 90.9441C107.674 90.8828 107.798 90.7876 107.893 90.6668C107.988 90.546 108.051 90.4036 108.077 90.2522V90.036C108.073 89.9878 108.079 89.9392 108.097 89.8942C108.115 89.8491 108.143 89.8088 108.179 89.7766L108.281 89.7179L108.5 89.5944L108.769 89.4368C108.821 89.4022 108.884 89.3864 108.946 89.392C109.008 89.3976 109.067 89.4243 109.112 89.4677C109.125 89.4763 109.136 89.4867 109.146 89.4986C109.169 89.5227 109.189 89.5497 109.204 89.5789C109.218 89.5923 109.228 89.608 109.235 89.6252C109.268 89.6788 109.295 89.7357 109.316 89.7951C109.339 89.8587 109.359 89.9237 109.374 89.9897C109.393 90.0669 109.405 90.141 109.421 90.2213C109.429 90.2673 109.434 90.3137 109.436 90.3603C109.436 90.3974 109.436 90.4314 109.436 90.4746C109.436 90.5178 109.436 90.6476 109.436 90.7371V93.7146H108.757V90.7371C108.757 90.6661 108.757 90.5951 108.757 90.5271L108.738 90.3572C108.74 90.3522 108.74 90.3468 108.738 90.3418C108.676 90.8823 108.161 91.3641 107.713 91.6174C107.464 91.7743 107.179 91.8637 106.885 91.8768C106.658 91.8797 106.439 91.7995 106.267 91.6514L106.205 91.6853L106.088 91.7564L88.7425 101.773L86.8863 102.866C86.6188 103.003 86.3219 103.072 86.0215 103.067V102.282C86.3216 102.289 86.6187 102.221 86.8863 102.085Z" fill="white"/>
<path d="M56.1641 85.0571V85.8632C56.1737 85.9706 56.2113 86.0735 56.2731 86.1618C56.3349 86.2502 56.4187 86.3208 56.5162 86.3667L83.2233 101.785L85.098 102.869C85.3699 103.01 85.6723 103.081 85.9783 103.076V102.291C85.6707 102.298 85.3666 102.226 85.095 102.081L83.9028 101.393L56.5162 85.576C56.4165 85.5288 56.3313 85.4558 56.2694 85.3646C56.2075 85.2733 56.1711 85.1672 56.1641 85.0571Z" fill="#FDA758"/>
<path opacity="0.1" d="M56.1641 85.0571V85.8632C56.1737 85.9706 56.2113 86.0735 56.2731 86.1618C56.3349 86.2502 56.4187 86.3208 56.5162 86.3667L83.2233 101.785L85.098 102.869C85.3699 103.01 85.6723 103.081 85.9783 103.076V102.291C85.6707 102.298 85.3666 102.226 85.095 102.081L83.9028 101.393L56.5162 85.576C56.4165 85.5288 56.3313 85.4558 56.2694 85.3646C56.2075 85.2733 56.1711 85.1672 56.1641 85.0571Z" fill="white"/>
<path d="M75.7488 73.4563C75.8844 73.3684 76.0372 73.3106 76.197 73.2866C76.3568 73.2626 76.5199 73.2731 76.6754 73.3173L77.0213 73.5181C77.4012 73.2957 77.7069 72.9405 77.7069 72.7212V72.5359C77.7099 72.4719 77.7279 72.4094 77.7595 72.3537C77.7837 72.3035 77.821 72.2608 77.8676 72.2301L78.022 72.1436L78.3834 71.9336C78.6365 71.8301 78.9101 71.7866 79.1828 71.8064C79.4555 71.8262 79.72 71.9089 79.9554 72.0479L108.54 88.5533L108.571 88.5719L88.3997 100.219C88.2175 100.312 88.0158 100.36 87.8113 100.36C87.6067 100.36 87.4051 100.312 87.2229 100.219L58.4526 83.4448L75.7488 73.4563Z" fill="#263238"/>
<path d="M90.0148 98.5267L89.252 98.0881C89.4573 98.0167 89.6778 98.0007 89.8913 98.0418C90.0951 98.1468 90.0148 98.5267 90.0148 98.5267Z" fill="#FDA758"/>
<path opacity="0.7" d="M90.0148 98.5267L89.252 98.0881C89.4573 98.0167 89.6778 98.0007 89.8913 98.0418C90.0951 98.1468 90.0148 98.5267 90.0148 98.5267Z" fill="black"/>
<path d="M90.54 98.054C90.4532 97.96 90.3479 97.8849 90.2307 97.8336C90.1135 97.7823 89.9869 97.7558 89.859 97.7558C89.731 97.7558 89.6044 97.7823 89.4872 97.8336C89.37 97.8849 89.2647 97.96 89.1779 98.054C88.4336 98.7366 88.3965 99.413 88.0877 99.4038C87.7788 99.3945 87.7788 93.9524 87.7788 93.9524L90.7161 96.6734L90.54 98.054Z" fill="#FDA758"/>
<path opacity="0.7" d="M90.54 98.054C90.4532 97.96 90.3479 97.8849 90.2307 97.8336C90.1135 97.7823 89.9869 97.7558 89.859 97.7558C89.731 97.7558 89.6044 97.7823 89.4872 97.8336C89.37 97.8849 89.2647 97.96 89.1779 98.054C88.4336 98.7366 88.3965 99.413 88.0877 99.4038C87.7788 99.3945 87.7788 93.9524 87.7788 93.9524L90.7161 96.6734L90.54 98.054Z" fill="black"/>
<path d="M59.8336 78.2716L59.7842 78.2438L60.2536 77.972L80.4778 66.2971L109.946 85.3661C110.431 85.6472 110.517 86.0549 110.138 86.2711L109.449 86.6695L90.5466 97.6L90.4107 97.5012L59.8336 78.2716Z" fill="#FDA758"/>
<path opacity="0.5" d="M59.8336 78.2716L59.7842 78.2438L60.2536 77.972L80.4778 66.2971L109.946 85.3661C110.431 85.6472 110.517 86.0549 110.138 86.2711L109.449 86.6695L90.5466 97.6L90.4107 97.5012L59.8336 78.2716Z" fill="black"/>
<path d="M88.0227 91.3765L89.4867 91.0676V96.936C88.6033 97.3128 88.0412 97.6649 87.9424 98.403L88.0227 91.3765Z" fill="#455A64"/>
<path d="M90.1323 97.0134L108.858 86.2033C109.03 86.0918 109.173 85.9414 109.275 85.7643C109.378 85.5872 109.437 85.3884 109.448 85.184V79.4053L90.54 90.4161C90.54 90.4161 90.3146 91.2346 89.6443 91.491C88.9741 91.7473 89.4868 92.0098 89.4868 92.0098V96.9516C90.0644 96.8682 90.1323 97.0134 90.1323 97.0134Z" fill="#F0F0F0"/>
<path d="M88.4064 91.1756C88.6009 91.0645 88.7554 91.0583 88.7554 91.1756V91.3579C88.7554 91.5617 89.0642 91.5525 89.4472 91.3301C89.8302 91.1077 90.139 90.7679 90.139 90.5641V90.3788C90.139 90.2738 90.4016 90.039 90.7228 89.8537L60.2569 72.397L59.7843 72.6688C59.7188 72.7383 59.6777 72.8271 59.667 72.922V73.1074C59.667 73.3112 59.3581 73.654 58.9782 73.8733C58.5983 74.0926 58.2864 74.105 58.2864 73.9011V73.7158C58.2864 73.6108 58.1319 73.6201 57.9404 73.7312L88.4064 91.1756Z" fill="#FDA758"/>
<path opacity="0.6" d="M88.4064 91.1756C88.6009 91.0645 88.7554 91.0583 88.7554 91.1756V91.3579C88.7554 91.5617 89.0642 91.5525 89.4472 91.3301C89.8302 91.1077 90.139 90.7679 90.139 90.5641V90.3788C90.139 90.2738 90.4016 90.039 90.7228 89.8537L60.2569 72.397L59.7843 72.6688C59.7188 72.7383 59.6777 72.8271 59.667 72.922V73.1074C59.667 73.3112 59.3581 73.654 58.9782 73.8733C58.5983 74.0926 58.2864 74.105 58.2864 73.9011V73.7158C58.2864 73.6108 58.1319 73.6201 57.9404 73.7312L88.4064 91.1756Z" fill="black"/>
<path d="M59.8336 72.6844L59.7842 72.6566L60.2536 72.3849L80.4778 60.71L109.946 77.7281C110.431 78.0092 110.517 78.4138 110.138 78.6331L109.449 79.0284L90.5404 90.4161L59.8336 72.6844Z" fill="#FDA758"/>
<path opacity="0.5" d="M59.8336 72.6844L59.7842 72.6566L60.2536 72.3849L80.4778 60.71L109.946 77.7281C110.431 78.0092 110.517 78.4138 110.138 78.6331L109.449 79.0284L90.5404 90.4161L59.8336 72.6844Z" fill="black"/>
<path d="M58.2799 73.5276L88.7396 91.1141L87.6741 91.948L57.3286 74.4295C57.4026 74.2042 57.5438 74.0069 57.7332 73.8642L58.2799 73.5276Z" fill="#FDA758"/>
<path opacity="0.5" d="M58.2799 73.5276L88.7396 91.1141L87.6741 91.948L57.3286 74.4295C57.4026 74.2042 57.5438 74.0069 57.7332 73.8642L58.2799 73.5276Z" fill="black"/>
<path d="M57.4304 82.29C57.4116 82.2783 57.3941 82.2649 57.3779 82.2498C57.3639 82.2429 57.3522 82.2322 57.3439 82.2189C57.319 82.1946 57.2981 82.1665 57.2822 82.1355C57.2685 82.1238 57.2579 82.109 57.2513 82.0923C57.2182 82.0393 57.1923 81.9822 57.1741 81.9224C57.1484 81.8582 57.1278 81.7921 57.1123 81.7248C57.0938 81.6506 57.0814 81.5765 57.0691 81.4962C57.0583 81.4506 57.0521 81.404 57.0505 81.3572V81.2429C57.0505 81.1595 57.0505 81.07 57.0505 80.9804V75.9491C57.045 75.4208 57.1415 74.8965 57.3347 74.4048L87.6801 91.9233L87.8068 99.8054L57.4644 82.2807L57.4304 82.29Z" fill="#FDA758"/>
<path opacity="0.7" d="M57.4304 82.29C57.4116 82.2783 57.3941 82.2649 57.3779 82.2498C57.3639 82.2429 57.3522 82.2322 57.3439 82.2189C57.319 82.1946 57.2981 82.1665 57.2822 82.1355C57.2685 82.1238 57.2579 82.109 57.2513 82.0923C57.2182 82.0393 57.1923 81.9822 57.1741 81.9224C57.1484 81.8582 57.1278 81.7921 57.1123 81.7248C57.0938 81.6506 57.0814 81.5765 57.0691 81.4962C57.0583 81.4506 57.0521 81.404 57.0505 81.3572V81.2429C57.0505 81.1595 57.0505 81.07 57.0505 80.9804V75.9491C57.045 75.4208 57.1415 74.8965 57.3347 74.4048L87.6801 91.9233L87.8068 99.8054L57.4644 82.2807L57.4304 82.29Z" fill="black"/>
<path opacity="0.79" d="M87.6584 91.9357C87.6584 91.9357 63.7588 80.7519 61.5844 79.7264C60.1482 79.05 59.444 80.4708 59.7838 81.941C60.0926 83.2258 61.3497 84.5508 61.3497 84.5508L57.4426 82.2931C57.4238 82.2814 57.4063 82.268 57.3901 82.2529C57.3761 82.246 57.3644 82.2353 57.3561 82.222C57.3312 82.1977 57.3104 82.1696 57.2944 82.1386C57.2807 82.1269 57.2701 82.1121 57.2635 82.0954C57.2304 82.0424 57.2045 81.9853 57.1863 81.9255C57.1606 81.8613 57.14 81.7952 57.1245 81.7278C57.106 81.6537 57.0936 81.5796 57.0813 81.4993C57.0706 81.4537 57.0643 81.4071 57.0627 81.3603V81.246C57.0627 81.1626 57.0627 81.0731 57.0627 80.9835V75.9491C57.0572 75.4208 57.1537 74.8965 57.3469 74.4048L87.6584 91.9357Z" fill="#263238"/>
<path d="M87.3774 93.4706H88.0569C88.041 92.9568 88.1535 92.4473 88.3843 91.988C88.5459 92.1078 88.7422 92.1718 88.9434 92.1703C89.2425 92.155 89.5327 92.0636 89.7866 91.9046C90.0922 91.7309 90.3592 91.4965 90.571 91.2159C90.5872 91.1966 90.6017 91.1759 90.6143 91.1541C90.7343 90.9832 90.8038 90.782 90.8151 90.5735L108.751 80.2205L109.368 79.8653L110.147 79.4174C110.214 79.3865 110.272 79.3377 110.314 79.2761C110.356 79.2146 110.38 79.1428 110.384 79.0684V78.2747C110.381 78.3503 110.357 78.4237 110.315 78.4868C110.273 78.5499 110.215 78.6005 110.147 78.6329L108.086 79.819L90.744 89.8353C90.4197 90.0206 90.1572 90.2553 90.1572 90.3603V90.5457C90.1379 90.6631 90.0816 90.7713 89.9966 90.8545C89.8477 91.0335 89.6678 91.1842 89.4653 91.2993C89.0823 91.5217 88.7735 91.5309 88.7735 91.3271V91.1448C88.7735 91.0367 88.6221 91.046 88.4276 91.1448L88.0847 91.3456C87.6863 91.5927 87.3774 92.5347 87.3774 93.4706Z" fill="#FDA758"/>
<path d="M88.057 93.4705V98.5018C88.057 98.5728 88.057 98.6439 88.057 98.7118L88.0724 98.8817C88.071 98.8867 88.071 98.8921 88.0724 98.8971C88.1342 98.3566 88.65 97.8748 89.0978 97.6216C89.3475 97.4643 89.6339 97.3748 89.9287 97.3621C90.1552 97.3592 90.375 97.4394 90.5464 97.5876L90.6051 97.5536L90.7255 97.4826L108.068 87.4662L109.066 86.8918L109.35 86.725L110.19 86.2401C110.245 86.2055 110.291 86.1578 110.323 86.1012C110.356 86.0446 110.373 85.9809 110.375 85.9158V86.7095C110.373 86.771 110.356 86.8311 110.326 86.8848C110.296 86.9385 110.253 86.9843 110.202 87.0184C110.103 87.0771 109.998 87.1327 109.893 87.1975L109.699 87.3118L109.365 87.5033C109.291 87.5496 109.223 87.5898 109.158 87.6238C109.093 87.6577 109.056 87.6855 109.013 87.7072L108.757 87.8585L94.9785 95.8085L90.5804 98.3474C90.2715 98.5327 90.0151 98.5975 89.9966 98.5018C89.9956 98.4905 89.9956 98.4791 89.9966 98.4678V98.2918C89.9966 98.0694 89.6877 98.0694 89.3079 98.2918C89.167 98.353 89.0436 98.4483 88.9487 98.5691C88.8538 98.6898 88.7904 98.8323 88.7643 98.9836V99.1998C88.7688 99.248 88.7619 99.2966 88.7442 99.3417C88.7265 99.3868 88.6985 99.427 88.6623 99.4593L88.5604 99.5179L88.3442 99.6415L88.0755 99.799C88.0234 99.8337 87.961 99.8495 87.8986 99.8439C87.8363 99.8383 87.7778 99.8115 87.7327 99.7681C87.7187 99.7612 87.7069 99.7505 87.6987 99.7372C87.6738 99.7141 87.6529 99.6869 87.6369 99.6569C87.6249 99.6438 87.6145 99.6293 87.606 99.6137C87.573 99.5607 87.547 99.5036 87.5288 99.4438C87.5027 99.3808 87.4821 99.3157 87.467 99.2492C87.4485 99.172 87.4362 99.0979 87.4238 99.0176C87.4129 98.972 87.4067 98.9255 87.4053 98.8786C87.4053 98.8415 87.4053 98.8076 87.4053 98.7643C87.4053 98.7211 87.4053 98.5914 87.4053 98.5018V93.4705H88.057Z" fill="#FDA758"/>
<g opacity="0.6">
<path d="M87.3774 93.4706H88.0569C88.041 92.9568 88.1535 92.4473 88.3843 91.988C88.5459 92.1078 88.7422 92.1718 88.9434 92.1703C89.2425 92.155 89.5327 92.0636 89.7866 91.9046C90.0922 91.7309 90.3592 91.4965 90.571 91.2159C90.5872 91.1966 90.6017 91.1759 90.6143 91.1541C90.7343 90.9832 90.8038 90.782 90.8151 90.5735L108.751 80.2205L109.368 79.8653L110.147 79.4174C110.214 79.3865 110.272 79.3377 110.314 79.2761C110.356 79.2146 110.38 79.1428 110.384 79.0684V78.2747C110.381 78.3503 110.357 78.4237 110.315 78.4868C110.273 78.5499 110.215 78.6005 110.147 78.6329L108.086 79.819L90.744 89.8353C90.4197 90.0206 90.1572 90.2553 90.1572 90.3603V90.5457C90.1379 90.6631 90.0816 90.7713 89.9966 90.8545C89.8477 91.0335 89.6678 91.1842 89.4653 91.2993C89.0823 91.5217 88.7735 91.5309 88.7735 91.3271V91.1448C88.7735 91.0367 88.6221 91.046 88.4276 91.1448L88.0847 91.3456C87.6863 91.5927 87.3774 92.5347 87.3774 93.4706Z" fill="black"/>
<path d="M88.057 93.4705V98.5018C88.057 98.5728 88.057 98.6439 88.057 98.7118L88.0724 98.8817C88.071 98.8867 88.071 98.8921 88.0724 98.8971C88.1342 98.3566 88.65 97.8748 89.0978 97.6216C89.3475 97.4643 89.6339 97.3748 89.9287 97.3621C90.1552 97.3592 90.375 97.4394 90.5464 97.5876L90.6051 97.5536L90.7255 97.4826L108.068 87.4662L109.066 86.8918L109.35 86.725L110.19 86.2401C110.245 86.2055 110.291 86.1578 110.323 86.1012C110.356 86.0446 110.373 85.9809 110.375 85.9158V86.7095C110.373 86.771 110.356 86.8311 110.326 86.8848C110.296 86.9385 110.253 86.9843 110.202 87.0184C110.103 87.0771 109.998 87.1327 109.893 87.1975L109.699 87.3118L109.365 87.5033C109.291 87.5496 109.223 87.5898 109.158 87.6238C109.093 87.6577 109.056 87.6855 109.013 87.7072L108.757 87.8585L94.9785 95.8085L90.5804 98.3474C90.2715 98.5327 90.0151 98.5975 89.9966 98.5018C89.9956 98.4905 89.9956 98.4791 89.9966 98.4678V98.2918C89.9966 98.0694 89.6877 98.0694 89.3079 98.2918C89.167 98.353 89.0436 98.4483 88.9487 98.5691C88.8538 98.6898 88.7904 98.8323 88.7643 98.9836V99.1998C88.7688 99.248 88.7619 99.2966 88.7442 99.3417C88.7265 99.3868 88.6985 99.427 88.6623 99.4593L88.5604 99.5179L88.3442 99.6415L88.0755 99.799C88.0234 99.8337 87.961 99.8495 87.8986 99.8439C87.8363 99.8383 87.7778 99.8115 87.7327 99.7681C87.7187 99.7612 87.7069 99.7505 87.6987 99.7372C87.6738 99.7141 87.6529 99.6869 87.6369 99.6569C87.6249 99.6438 87.6145 99.6293 87.606 99.6137C87.573 99.5607 87.547 99.5036 87.5288 99.4438C87.5027 99.3808 87.4821 99.3157 87.467 99.2492C87.4485 99.172 87.4362 99.0979 87.4238 99.0176C87.4129 98.972 87.4067 98.9255 87.4053 98.8786C87.4053 98.8415 87.4053 98.8076 87.4053 98.7643C87.4053 98.7211 87.4053 98.5914 87.4053 98.5018V93.4705H88.057Z" fill="black"/>
</g>
<path d="M57.313 74.4138L86.1543 91.0676L107.954 78.4815C108.025 78.4577 108.087 78.4121 108.131 78.3511C108.175 78.2901 108.198 78.2169 108.198 78.1418C108.198 78.0667 108.175 77.9934 108.131 77.9325C108.087 77.8715 108.025 77.8259 107.954 77.802L79.415 61.3213L60.2657 72.3846L59.7931 72.6595C59.7292 72.7285 59.6891 72.8162 59.6789 72.9097V73.095C59.6789 73.2989 59.37 73.6417 58.9901 73.861C58.9708 73.8737 58.9501 73.8841 58.9283 73.8919L58.2921 73.5243L57.9832 73.6973L57.94 73.7189L57.7176 73.8486C57.5285 73.9916 57.3873 74.1887 57.313 74.4138Z" fill="#263238"/>
<path d="M106.344 78.6053L105.477 78.142L106.267 77.9536C106.343 78.0424 106.391 78.1517 106.405 78.2677C106.419 78.3838 106.398 78.5012 106.344 78.6053Z" fill="#E0E0E0"/>
<g style="mix-blend-mode:multiply" opacity="0.5">
<path d="M106.344 78.6053L105.477 78.142L106.267 77.9536C106.343 78.0424 106.391 78.1517 106.405 78.2677C106.419 78.3838 106.398 78.5012 106.344 78.6053Z" fill="#E0E0E0"/>
</g>
<path d="M83.3433 90.1873C83.6166 90.3259 83.9187 90.3982 84.2251 90.3982C84.5316 90.3982 84.8337 90.3259 85.1069 90.1873L104.917 78.7595L75.2667 60.0148L74.5717 59.6133L54.7646 72.6595C54.2797 72.9406 54.2797 73.3977 54.7646 73.6787L83.3433 90.1873Z" fill="#FDA758"/>
<path d="M90.7805 66.9519L105.748 77.0948L97.6897 70.9177L102.162 68.3356L107.363 71.347V76.718C107.363 77.1752 106.854 77.8207 106.668 77.7157C106.326 77.7985 105.992 77.9165 105.674 78.0678C105.154 78.3632 104.672 78.7199 104.238 79.1302L88.3652 68.3418L90.7805 66.9519Z" fill="#FDA758"/>
<path opacity="0.2" d="M90.7805 66.9519L105.748 77.0948L97.6897 70.9177L102.162 68.3356L107.363 71.347V76.718C107.363 77.1752 106.854 77.8207 106.668 77.7157C106.326 77.7985 105.992 77.9165 105.674 78.0678C105.154 78.3632 104.672 78.7199 104.238 79.1302L88.3652 68.3418L90.7805 66.9519Z" fill="black"/>
<path d="M84.2236 83.482V89.6839C84.4289 89.6885 84.6319 89.6407 84.8136 89.5449L86.9756 88.291L103.53 78.7349V72.3291L84.2236 83.482Z" fill="white"/>
<path d="M55.2559 67.3318V72.4805C55.2672 72.6844 55.3262 72.8829 55.4281 73.0599C55.53 73.2369 55.672 73.3875 55.8427 73.4997L81.478 88.2941L83.6401 89.5481C83.8207 89.6434 84.0227 89.6912 84.2269 89.687V83.967L55.2559 67.3318Z" fill="#F0F0F0"/>
<path d="M103.54 78.7349C103.555 78.5006 103.641 78.2765 103.787 78.0925C103.998 77.8111 104.265 77.5765 104.572 77.4037C104.827 77.2448 105.118 77.1534 105.418 77.1381C105.612 77.1184 105.808 77.164 105.974 77.2678V70.9238L103.543 72.3291L103.54 78.7349Z" fill="#455A64"/>
<path d="M104.51 77.4407C104.23 77.6101 103.984 77.8312 103.787 78.0924C103.641 78.2764 103.555 78.5005 103.54 78.7348V72.5576H104.507L104.51 77.4407Z" fill="#F5F5F5"/>
<path d="M75.2637 54.409L104.914 71.5353V71.9306C104.914 72.153 105.223 72.2395 105.603 72.014C105.983 71.7886 106.298 71.5168 106.298 71.1369L106.335 70.7601L76.1192 53.3157L75.9957 53.2446C75.9646 53.3015 75.9476 53.3651 75.9462 53.4299V53.6122C75.9493 53.8315 75.6436 54.1867 75.2637 54.409Z" fill="#FDA758"/>
<path opacity="0.2" d="M75.2637 54.409L104.914 71.5353V71.9306C104.914 72.153 105.223 72.2395 105.603 72.014C105.983 71.7886 106.298 71.5168 106.298 71.1369L106.335 70.7601L76.1192 53.3157L75.9957 53.2446C75.9646 53.3015 75.9476 53.3651 75.9462 53.4299V53.6122C75.9493 53.8315 75.6436 54.1867 75.2637 54.409Z" fill="black"/>
<path d="M85.1069 82.9723L104.491 71.7885C104.738 71.6587 104.964 71.5537 105.056 71.6031L104.93 71.5352L75.279 54.4089L74.93 54.2113C74.7748 54.1652 74.6114 54.1537 74.4513 54.1778C74.2912 54.2018 74.1383 54.2607 74.0034 54.3502L54.7646 65.4476C54.2797 65.7286 54.2797 66.1888 54.7646 66.4668L83.3495 82.9723C83.622 83.1099 83.923 83.1816 84.2282 83.1816C84.5335 83.1816 84.8345 83.1099 85.1069 82.9723Z" fill="#FDA758"/>
<path d="M75.9985 53.2447L76.1221 53.3157L106.344 70.7601C106.359 70.7279 106.381 70.6994 106.409 70.6767L106.511 70.6211L106.727 70.4945L106.996 70.337C107.048 70.3029 107.11 70.2874 107.172 70.293C107.235 70.2986 107.293 70.3249 107.339 70.3678C107.351 70.3765 107.363 70.3869 107.372 70.3987C107.408 70.4372 107.439 70.4797 107.465 70.5254C107.497 70.579 107.523 70.636 107.542 70.6952C107.567 70.7599 107.587 70.8259 107.604 70.8929C107.62 70.967 107.635 71.0412 107.647 71.1215C107.657 71.1683 107.663 71.2158 107.666 71.2635V71.3747C107.666 71.4581 107.666 71.5477 107.666 71.6404V70.791C107.635 70.5113 107.539 70.2427 107.385 70.0067C107.232 69.7707 107.026 69.5739 106.783 69.432L78.1976 52.9265C77.962 52.7878 77.6974 52.7056 77.4246 52.6863C77.1519 52.667 76.8783 52.7112 76.6255 52.8154L76.2641 53.0254L76.1128 53.1149C76.0631 53.1464 76.0235 53.1914 75.9985 53.2447Z" fill="#FDA758"/>
<path d="M85.1068 90.1872L86.3021 89.4954L104.238 79.1393C104.253 78.9051 104.339 78.6812 104.485 78.4969C104.697 78.2164 104.964 77.982 105.269 77.8081C105.524 77.6515 105.814 77.5612 106.112 77.5456C106.314 77.5414 106.511 77.6057 106.671 77.7278C106.902 77.2673 107.014 76.7569 106.999 76.2422H107.678C107.678 77.1688 107.369 78.1201 106.99 78.3393L106.647 78.5401C106.452 78.6513 106.301 78.6575 106.301 78.5401V78.3579C106.301 78.154 105.992 78.1633 105.606 78.3826C105.22 78.6019 104.917 78.9478 104.917 79.1516V79.3339C104.917 79.4389 104.655 79.6736 104.33 79.862L86.9847 89.8783L85.1068 90.9624C84.835 91.103 84.5326 91.1741 84.2266 91.1694V90.3849C84.5321 90.3953 84.8351 90.3272 85.1068 90.1872Z" fill="#FDA758"/>
<path opacity="0.4" d="M85.1068 90.1872L86.3021 89.4954L104.238 79.1393C104.253 78.9051 104.339 78.6812 104.485 78.4969C104.697 78.2164 104.964 77.982 105.269 77.8081C105.524 77.6515 105.814 77.5612 106.112 77.5456C106.314 77.5414 106.511 77.6057 106.671 77.7278C106.902 77.2673 107.014 76.7569 106.999 76.2422H107.678C107.678 77.1688 107.369 78.1201 106.99 78.3393L106.647 78.5401C106.452 78.6513 106.301 78.6575 106.301 78.5401V78.3579C106.301 78.154 105.992 78.1633 105.606 78.3826C105.22 78.6019 104.917 78.9478 104.917 79.1516V79.3339C104.917 79.4389 104.655 79.6736 104.33 79.862L86.9847 89.8783L85.1068 90.9624C84.835 91.103 84.5326 91.1741 84.2266 91.1694V90.3849C84.5321 90.3953 84.8351 90.3272 85.1068 90.1872Z" fill="black"/>
<path d="M85.1015 82.9754L86.2967 82.2836L100.075 74.3335L104.492 71.7885C104.801 71.6063 105.06 71.5414 105.078 71.6372V71.8379C105.078 72.0572 105.387 72.0572 105.767 71.8379C105.908 71.7764 106.032 71.6806 106.127 71.5593C106.222 71.438 106.285 71.2949 106.311 71.143V70.9268C106.306 70.8786 106.313 70.83 106.331 70.7849C106.349 70.7398 106.377 70.6996 106.413 70.6673L106.515 70.6117L106.731 70.4851L107 70.3276C107.052 70.2935 107.114 70.278 107.176 70.2836C107.239 70.2892 107.297 70.3156 107.342 70.3585C107.355 70.3671 107.367 70.3775 107.376 70.3894C107.4 70.4145 107.421 70.4425 107.438 70.4728C107.45 70.4861 107.46 70.5006 107.469 70.516C107.501 70.5697 107.527 70.6266 107.546 70.6859C107.571 70.7506 107.591 70.8166 107.608 70.8835C107.623 70.9577 107.639 71.0318 107.651 71.1121C107.661 71.159 107.667 71.2065 107.67 71.2542V71.3654C107.67 71.4488 107.67 71.5383 107.67 71.631V76.2268H106.99V71.6557C106.99 71.5847 106.99 71.5105 106.99 71.4426L106.975 71.2727C106.913 71.8132 106.397 72.295 105.946 72.5483C105.698 72.7061 105.413 72.7956 105.119 72.8077C104.892 72.8106 104.672 72.7304 104.501 72.5823L104.442 72.6162L104.322 72.6873L86.9762 82.7036L85.0984 83.7877C84.83 83.9249 84.5319 83.9939 84.2305 83.9885V83.204C84.5353 83.2018 84.8348 83.1232 85.1015 82.9754Z" fill="#FDA758"/>
<path opacity="0.4" d="M85.1015 82.9754L86.2967 82.2836L100.075 74.3335L104.492 71.7885C104.801 71.6063 105.06 71.5414 105.078 71.6372V71.8379C105.078 72.0572 105.387 72.0572 105.767 71.8379C105.908 71.7764 106.032 71.6806 106.127 71.5593C106.222 71.438 106.285 71.2949 106.311 71.143V70.9268C106.306 70.8786 106.313 70.83 106.331 70.7849C106.349 70.7398 106.377 70.6996 106.413 70.6673L106.515 70.6117L106.731 70.4851L107 70.3276C107.052 70.2935 107.114 70.278 107.176 70.2836C107.239 70.2892 107.297 70.3156 107.342 70.3585C107.355 70.3671 107.367 70.3775 107.376 70.3894C107.4 70.4145 107.421 70.4425 107.438 70.4728C107.45 70.4861 107.46 70.5006 107.469 70.516C107.501 70.5697 107.527 70.6266 107.546 70.6859C107.571 70.7506 107.591 70.8166 107.608 70.8835C107.623 70.9577 107.639 71.0318 107.651 71.1121C107.661 71.159 107.667 71.2065 107.67 71.2542V71.3654C107.67 71.4488 107.67 71.5383 107.67 71.631V76.2268H106.99V71.6557C106.99 71.5847 106.99 71.5105 106.99 71.4426L106.975 71.2727C106.913 71.8132 106.397 72.295 105.946 72.5483C105.698 72.7061 105.413 72.7956 105.119 72.8077C104.892 72.8106 104.672 72.7304 104.501 72.5823L104.442 72.6162L104.322 72.6873L86.9762 82.7036L85.0984 83.7877C84.83 83.9249 84.5319 83.9939 84.2305 83.9885V83.204C84.5353 83.2018 84.8348 83.1232 85.1015 82.9754Z" fill="black"/>
<path d="M54.397 65.948V66.7449C54.4063 66.8519 54.4435 66.9546 54.5047 67.0429C54.5659 67.1312 54.6491 67.202 54.746 67.2483L81.4562 82.6666L83.3309 83.7507C83.6018 83.8908 83.9031 83.9619 84.2081 83.9576V83.1731C83.9015 83.1799 83.5984 83.1075 83.3279 82.9631L82.1357 82.2743L54.7645 66.4669C54.6607 66.4236 54.5712 66.352 54.5062 66.2602C54.4412 66.1685 54.4034 66.0603 54.397 65.948Z" fill="#FDA758"/>
<path opacity="0.2" d="M54.397 65.948V66.7449C54.4063 66.8519 54.4435 66.9546 54.5047 67.0429C54.5659 67.1312 54.6491 67.202 54.746 67.2483L81.4562 82.6666L83.3309 83.7507C83.6018 83.8908 83.9031 83.9619 84.2081 83.9576V83.1731C83.9015 83.1799 83.5984 83.1075 83.3279 82.9631L82.1357 82.2743L54.7645 66.4669C54.6607 66.4236 54.5712 66.352 54.5062 66.2602C54.4412 66.1685 54.4034 66.0603 54.397 65.948Z" fill="black"/>
<path d="M54.397 73.157V73.9538C54.4063 74.0609 54.4435 74.1636 54.5047 74.2519C54.5659 74.3402 54.6491 74.411 54.746 74.4573L81.4685 89.8786L83.3433 90.9627C83.6142 91.1029 83.9155 91.1739 84.2205 91.1697V90.3852C83.9139 90.3919 83.6107 90.3196 83.3402 90.1751L82.148 89.4864L54.7645 73.6759C54.6607 73.6326 54.5712 73.561 54.5062 73.4692C54.4412 73.3774 54.4034 73.2692 54.397 73.157Z" fill="#FDA758"/>
<path opacity="0.2" d="M54.397 73.157V73.9538C54.4063 74.0609 54.4435 74.1636 54.5047 74.2519C54.5659 74.3402 54.6491 74.411 54.746 74.4573L81.4685 89.8786L83.3433 90.9627C83.6142 91.1029 83.9155 91.1739 84.2205 91.1697V90.3852C83.9139 90.3919 83.6107 90.3196 83.3402 90.1751L82.148 89.4864L54.7645 73.6759C54.6607 73.6326 54.5712 73.561 54.5062 73.4692C54.4412 73.3774 54.4034 73.2692 54.397 73.157Z" fill="black"/>
<path d="M66.7328 45.1338L63.8975 50.1867L68.03 52.3858L71.0383 47.9073L66.7328 45.1338Z" fill="#FFA8A7"/>
<path d="M76.7925 33.7525C75.2173 33.4837 72.833 33.4127 71.2825 36.072C69.732 38.7313 66.3901 45.2945 66.3901 45.2945C66.3901 45.2945 68.3421 47.821 71.1682 48.2812L75.7856 40.9551L76.7925 33.7525Z" fill="#FDA758"/>
<path d="M73.0706 95.6355H69.5435V101.674H73.0706V95.6355Z" fill="#FFA8A7"/>
<path d="M62.8595 94.1655L59.3323 94.2859L59.1562 87.8956L62.6803 87.7751L62.8595 94.1655Z" fill="#FFA8A7"/>
<path d="M69.5436 99.9319V99.4285C69.207 99.5736 68.4225 102.566 67.0233 103.842C65.9114 104.858 64.3949 106.029 64.0088 107.159C63.6073 108.336 66.1215 108.988 67.1592 108.802C68.3669 108.589 70.4609 107.74 70.986 106.949C71.5111 106.159 71.7581 105 72.1844 104.423C72.6106 103.845 73.5959 103.187 73.8275 102.529C73.9541 102.162 73.8028 101.359 73.6267 100.676C73.463 100.059 73.2839 99.3667 73.0708 99.4254V99.8084C72.8144 100.093 72.1072 100.374 71.3072 100.404C70.7914 100.429 69.5405 100.327 69.5436 99.9319Z" fill="#263238"/>
<path d="M59.2955 93.1987C59.1132 93.1987 58.965 93.4644 58.5604 93.8998C57.9568 94.5097 57.2552 95.0139 56.4848 95.3916C55.1629 96.0557 52.6025 97.0718 51.435 97.6C50.7092 97.9274 50.7431 98.8045 51.4937 99.3049C52.2442 99.8052 54.0541 100.164 56.2316 99.6755C57.4145 99.4099 58.9588 98.3165 59.9379 98.3752C60.917 98.4339 62.7423 98.4215 63.462 97.9243C64.1816 97.427 63.8944 96.38 63.6905 95.4534C63.4682 94.4589 63.15 92.9362 62.8196 93.0042V93.313C62.3964 93.9554 60.2375 94.218 59.3047 93.7454L59.2955 93.1987Z" fill="#263238"/>
<path d="M87.2781 58.9155C88.0503 64.3669 87.0094 65.4016 81.8298 70.6336C79.0501 73.4412 74.5562 77.5583 74.5562 77.5583C74.5562 77.5583 74.6211 79.3002 74.655 83.2042C74.689 86.6418 73.2528 97.8287 73.2528 97.8287C73.2528 97.8287 70.9116 98.814 69.3056 97.7917C69.3056 97.7917 68.5798 89.4679 68.1875 85.1284C67.6563 79.2601 67.3783 76.3012 67.6779 75.038C67.9435 73.923 73.2157 67.264 74.4326 65.3985L63.2272 71.9092C63.4445 73.5589 63.5538 75.221 63.5546 76.8849C63.4311 81.5518 62.8566 90.8732 62.8566 90.8732C62.8566 90.8732 60.2931 92.0191 59.0206 91.0307C59.0206 91.0307 55.793 70.646 55.793 68.972C55.793 66.4301 66.8316 58.8414 68.9226 57.0747C70.1148 56.0678 71.4429 54.9775 71.4429 54.9775L87.2781 58.9155Z" fill="#455A64"/>
<path d="M74.433 65.4011C73.2543 64.4468 72.3672 63.1809 71.8725 61.7473C71.9343 62.6827 72.0675 63.612 72.271 64.5271C72.5798 65.7378 63.2275 71.9088 63.2275 71.9088L74.433 65.4011Z" fill="#37474F"/>
<path d="M80.6605 24.0033C81.2915 21.3112 79.6205 18.6173 76.9284 17.9864C74.2363 17.3554 71.5424 19.0264 70.9115 21.7185C70.2805 24.4106 71.9514 27.1045 74.6436 27.7354C77.3357 28.3664 80.0296 26.6954 80.6605 24.0033Z" fill="#263238"/>
<path d="M86.3058 36.7854C86.3058 36.7854 87.5412 37.7985 87.5412 40.9983V47.9075L87.3652 59.5268C84.8943 62.2169 73.7754 61.1977 71.0234 55.3294C71.0234 55.3294 71.0451 43.0646 71.0451 40.3157C71.0451 37.5669 72.5894 33.9995 76.7898 33.7524L82.2319 35.0188L86.3058 36.7854Z" fill="#263238"/>
<path d="M84.4399 26.4204C84.4399 26.4204 83.6276 30.2317 83.3033 30.8587C83.087 31.2452 82.7295 31.533 82.3057 31.6618L82.3613 28.9809L84.4399 26.4204Z" fill="#263238"/>
<path d="M83.4204 20.9595C83.7024 20.9278 83.9879 20.9605 84.2554 21.0552C84.5229 21.1499 84.7655 21.3041 84.9647 21.5062C85.6318 22.1887 85.2581 24.3261 84.4273 26.4201L82.8984 26.5962L83.4204 20.9595Z" fill="#263238"/>
<path d="M82.4544 26.5961C82.7633 26.7783 83.1988 26.1915 83.5756 25.7962C83.9524 25.4008 85.1878 24.8696 85.8025 26.1575C86.4171 27.4455 85.2589 29.2245 84.289 29.5303C82.615 30.0553 82.3618 28.9805 82.3618 28.9805L82.2351 35.0187C80.7928 36.631 75.8603 36.2541 76.7899 34.8581V33.0049C76.7899 33.0049 75.2734 33.2366 74.5353 33.1223C73.2998 32.9308 72.5277 31.961 72.1539 30.6267C71.5548 28.4863 71.3262 26.7598 71.8451 22.55C72.4041 17.9357 77.769 17.8894 80.6661 19.7116C83.5632 21.5339 82.4544 26.5961 82.4544 26.5961Z" fill="#FFA8A7"/>
<path d="M78.1886 27.6526H77.9292C77.4762 27.6526 77.0418 27.4726 76.7214 27.1523C76.4011 26.832 76.2212 26.3976 76.2212 25.9446C76.2212 25.4916 76.4011 25.0571 76.7214 24.7368C77.0418 24.4165 77.4762 24.2366 77.9292 24.2366H78.1917C78.6447 24.2366 79.0791 24.4165 79.3995 24.7368C79.7198 25.0571 79.8997 25.4916 79.8997 25.9446C79.8997 26.3976 79.7198 26.832 79.3995 27.1523C79.0791 27.4726 78.6447 27.6526 78.1917 27.6526H78.1886ZM77.9292 24.5238C77.5524 24.5238 77.191 24.6735 76.9246 24.9399C76.6581 25.2064 76.5084 25.5678 76.5084 25.9446C76.5084 26.3214 76.6581 26.6827 76.9246 26.9492C77.191 27.2156 77.5524 27.3653 77.9292 27.3653H78.1917C78.5685 27.3653 78.9299 27.2156 79.1963 26.9492C79.4628 26.6827 79.6125 26.3214 79.6125 25.9446C79.6125 25.5678 79.4628 25.2064 79.1963 24.9399C78.9299 24.6735 78.5685 24.5238 78.1917 24.5238H77.9292Z" fill="#263238"/>
<path d="M72.9876 27.6526H72.7251C72.2721 27.6526 71.8377 27.4726 71.5173 27.1523C71.197 26.832 71.0171 26.3976 71.0171 25.9446C71.0171 25.4916 71.197 25.0571 71.5173 24.7368C71.8377 24.4165 72.2721 24.2366 72.7251 24.2366H72.9876C73.4406 24.2366 73.875 24.4165 74.1954 24.7368C74.5157 25.0571 74.6956 25.4916 74.6956 25.9446C74.6956 26.3976 74.5157 26.832 74.1954 27.1523C73.875 27.4726 73.4406 27.6526 72.9876 27.6526ZM72.7251 24.5238C72.3483 24.5238 71.9869 24.6735 71.7205 24.9399C71.454 25.2064 71.3043 25.5678 71.3043 25.9446C71.3043 26.3214 71.454 26.6827 71.7205 26.9492C71.9869 27.2156 72.3483 27.3653 72.7251 27.3653H72.9876C73.3644 27.3653 73.7258 27.2156 73.9922 26.9492C74.2587 26.6827 74.4084 26.3214 74.4084 25.9446C74.4084 25.5678 74.2587 25.2064 73.9922 24.9399C73.7258 24.6735 73.3644 24.5238 72.9876 24.5238H72.7251Z" fill="#263238"/>
<path d="M76.2398 25.6078C76.1356 25.4663 75.9998 25.351 75.8433 25.2711C75.6867 25.1912 75.5137 25.1489 75.3379 25.1476C75.1915 25.1329 75.0438 25.1532 74.9068 25.2069C74.7699 25.2606 74.6477 25.3462 74.5503 25.4565L74.3218 25.2835C74.4468 25.1356 74.6063 25.0208 74.7862 24.9492C74.9661 24.8775 75.1609 24.8513 75.3534 24.8727C75.5761 24.8749 75.795 24.9302 75.9922 25.0338C76.1893 25.1375 76.3589 25.2866 76.4869 25.4688L76.2398 25.6078Z" fill="#263238"/>
<path d="M83.371 25.5957H79.7388V25.8829H83.371V25.5957Z" fill="#263238"/>
<path d="M82.4542 27.1119C82.6086 27.1119 83.1923 26.1421 83.5753 25.7962C84.1035 25.3144 83.4209 20.9594 83.4209 20.9594C83.4209 20.9594 83.9305 19.8753 82.9113 18.7573C82.1885 17.9604 80.9778 17.8708 78.9115 17.5465C77.8274 17.3767 76.1843 17.0709 75.1002 16.8701C73.8092 16.6292 72.7374 16.376 71.8263 17.179C71.4686 17.489 71.2157 17.9022 71.1023 18.3618C70.989 18.8214 71.0207 19.3048 71.1931 19.7456C71.4547 20.2954 71.9199 20.7219 72.4904 20.9347C72.4904 20.9347 73.0525 21.4351 75.0137 21.6729C76.975 21.9107 80.0296 21.6297 80.4466 21.571C81.0149 21.4938 81.1353 22.0435 81.4442 23.5508C81.7129 24.8634 81.9445 27.1027 82.4542 27.1119Z" fill="#263238"/>
<path d="M83.4177 21.3119L85.2708 20.3143C85.2115 20.1897 85.1275 20.0785 85.024 19.9872C84.9205 19.896 84.7996 19.8266 84.6686 19.7833C84.5376 19.74 84.3992 19.7237 84.2617 19.7353C84.1242 19.747 83.9905 19.7863 83.8686 19.851C83.6209 19.9907 83.4361 20.2199 83.3522 20.4917C83.2683 20.7634 83.2918 21.0569 83.4177 21.3119Z" fill="#263238"/>
<path d="M76.7926 33.0206C76.7926 33.0206 79.5415 32.4677 80.499 31.9581C81.0639 31.663 81.5267 31.2045 81.8271 30.6423C81.6817 31.2023 81.4254 31.7275 81.0734 32.1866C80.3692 33.0854 76.7896 33.7464 76.7896 33.7464L76.7926 33.0206Z" fill="#F28F8F"/>
<path d="M77.4533 25.9107C77.4575 26.0191 77.4936 26.1239 77.557 26.212C77.6204 26.3001 77.7083 26.3676 77.8098 26.406C77.9113 26.4445 78.0219 26.4522 78.1278 26.4283C78.2336 26.4043 78.3301 26.3497 78.4051 26.2713C78.4802 26.1929 78.5305 26.0941 78.5498 25.9873C78.569 25.8805 78.5565 25.7704 78.5136 25.6706C78.4707 25.5709 78.3994 25.4861 78.3087 25.4266C78.2179 25.3671 78.1116 25.3357 78.003 25.3362C77.9292 25.3378 77.8564 25.3539 77.7888 25.3837C77.7212 25.4134 77.6602 25.4562 77.6091 25.5095C77.5581 25.5629 77.518 25.6258 77.4913 25.6946C77.4645 25.7634 77.4516 25.8368 77.4533 25.9107Z" fill="#263238"/>
<path d="M78.3369 23.6314L79.5168 24.28C79.5963 24.1193 79.6122 23.9346 79.5612 23.7627C79.5102 23.5909 79.3961 23.4447 79.2419 23.3534C79.1646 23.3106 79.0794 23.2839 78.9915 23.2748C78.9037 23.2656 78.8148 23.2743 78.7304 23.3002C78.6459 23.3262 78.5675 23.3689 78.4999 23.4258C78.4323 23.4827 78.3769 23.5526 78.3369 23.6314Z" fill="#263238"/>
<path d="M77.0432 29.7126L75.7861 30.1852C75.8132 30.2696 75.857 30.3477 75.915 30.4147C75.973 30.4817 76.0439 30.5364 76.1235 30.5753C76.2031 30.6142 76.2898 30.6367 76.3783 30.6413C76.4668 30.6459 76.5554 30.6326 76.6386 30.6022C76.808 30.5351 76.9448 30.4049 77.0203 30.239C77.0957 30.0731 77.104 29.8845 77.0432 29.7126Z" fill="#F28F8F"/>
<path d="M72.4008 24.1129L73.4756 23.2883C73.4256 23.2163 73.3615 23.1552 73.2872 23.1087C73.2129 23.0621 73.13 23.0311 73.0434 23.0176C72.9568 23.004 72.8683 23.0081 72.7834 23.0297C72.6984 23.0513 72.6187 23.0899 72.5491 23.1431C72.4044 23.2547 72.3082 23.4177 72.2806 23.5983C72.253 23.7789 72.2961 23.9632 72.4008 24.1129Z" fill="#263238"/>
<path d="M72.8732 25.753C72.8774 25.8614 72.9135 25.9662 72.9769 26.0543C73.0403 26.1424 73.1283 26.2099 73.2297 26.2483C73.3312 26.2868 73.4418 26.2945 73.5477 26.2705C73.6535 26.2466 73.75 26.192 73.825 26.1136C73.9001 26.0352 73.9504 25.9364 73.9697 25.8296C73.989 25.7228 73.9764 25.6126 73.9335 25.5129C73.8906 25.4132 73.8194 25.3283 73.7286 25.2689C73.6378 25.2094 73.5315 25.1779 73.423 25.1785C73.3491 25.1801 73.2763 25.1962 73.2088 25.226C73.1412 25.2557 73.0801 25.2985 73.029 25.3518C72.978 25.4052 72.938 25.468 72.9112 25.5369C72.8845 25.6057 72.8715 25.6791 72.8732 25.753Z" fill="#263238"/>
<path d="M75.594 25.3113L75.5322 28.6501L73.5586 28.2146L75.594 25.3113Z" fill="#F28F8F"/>
<path d="M72.2215 53.0686V53.3775C72.2213 53.5354 72.1796 53.6905 72.1004 53.8271C72.0212 53.9637 71.9075 54.0771 71.7706 54.1558L63.1935 59.0975C63.0569 59.1764 62.9019 59.218 62.7442 59.218C62.5864 59.218 62.4314 59.1764 62.2948 59.0975L46.5584 50.014C46.4214 49.9353 46.3077 49.8219 46.2285 49.6853C46.1494 49.5486 46.1076 49.3936 46.1074 49.2356V49.0164L62.7426 58.6188L72.2215 53.0686Z" fill="#FDA758"/>
<path opacity="0.6" d="M72.2215 53.0686V53.3775C72.2213 53.5354 72.1796 53.6905 72.1004 53.8271C72.0212 53.9637 71.9075 54.0771 71.7706 54.1558L63.1935 59.0975C63.0569 59.1764 62.9019 59.218 62.7442 59.218C62.5864 59.218 62.4314 59.1764 62.2948 59.0975L46.5584 50.014C46.4214 49.9353 46.3077 49.8219 46.2285 49.6853C46.1494 49.5486 46.1076 49.3936 46.1074 49.2356V49.0164L62.7426 58.6188L72.2215 53.0686Z" fill="black"/>
<path d="M46.1167 49.0196L55.4474 43.633C55.5291 43.5859 55.6217 43.561 55.7161 43.561C55.8104 43.561 55.9031 43.5859 55.9848 43.633L72.169 52.9791C72.1869 52.9898 72.2018 53.005 72.2121 53.0231C72.2224 53.0412 72.2278 53.0617 72.2278 53.0826C72.2278 53.1035 72.2224 53.124 72.2121 53.1421C72.2018 53.1602 72.1869 53.1754 72.169 53.1861L62.7519 58.622L46.1167 49.0196Z" fill="#FDA758"/>
<path opacity="0.5" d="M46.1167 49.0196L55.4474 43.633C55.5291 43.5859 55.6217 43.561 55.7161 43.561C55.8104 43.561 55.9031 43.5859 55.9848 43.633L72.169 52.9791C72.1869 52.9898 72.2018 53.005 72.2121 53.0231C72.2224 53.0412 72.2278 53.0617 72.2278 53.0826C72.2278 53.1035 72.2224 53.124 72.2121 53.1421C72.2018 53.1602 72.1869 53.1754 72.169 53.1861L62.7519 58.622L46.1167 49.0196Z" fill="black"/>
<path d="M62.8293 57.8315L67.8606 54.9282L53.1465 46.4346L48.0874 49.3224L62.8293 57.8315Z" fill="#263238"/>
<path d="M65.3029 49.7575L65.2103 49.81L62.7425 51.2339L58.3567 48.7012L58.2671 48.6487L60.8244 47.1724L65.3029 49.7575Z" fill="#263238"/>
<path d="M65.2105 49.81L62.7427 51.2338L58.3569 48.7012L60.8247 47.2773L65.2105 49.81Z" fill="#263238"/>
<path opacity="0.7" d="M62.7426 58.622V59.2212C62.5853 59.221 62.4309 59.1795 62.2948 59.1007L46.5584 50.0171C46.4214 49.9385 46.3077 49.8251 46.2285 49.6885C46.1494 49.5518 46.1076 49.3967 46.1074 49.2388V49.0195L62.7426 58.622Z" fill="black"/>
<path d="M62.486 58.7549C62.3363 58.8145 62.175 58.839 62.0144 58.8267C61.8539 58.8144 61.6982 58.7655 61.5594 58.6838L45.894 49.6404C45.7579 49.5624 45.6408 49.4551 45.5511 49.3264C45.4614 49.1977 45.4013 49.0508 45.3751 48.8961L43.661 38.6666C43.6512 38.6095 43.6461 38.5517 43.6455 38.4937C43.6437 38.2095 43.7548 37.9362 43.9544 37.7339L60.2344 47.1356C60.3377 47.1924 60.427 47.2714 60.4959 47.3671C60.5649 47.4627 60.6116 47.5725 60.6328 47.6884L62.486 58.7549Z" fill="#FDA758"/>
<path opacity="0.5" d="M62.486 58.7549C62.3363 58.8145 62.175 58.839 62.0144 58.8267C61.8539 58.8144 61.6982 58.7655 61.5594 58.6838L45.894 49.6404C45.7579 49.5624 45.6408 49.4551 45.5511 49.3264C45.4614 49.1977 45.4013 49.0508 45.3751 48.8961L43.661 38.6666C43.6512 38.6095 43.6461 38.5517 43.6455 38.4937C43.6437 38.2095 43.7548 37.9362 43.9544 37.7339L60.2344 47.1356C60.3377 47.1924 60.427 47.2714 60.4959 47.3671C60.5649 47.4627 60.6116 47.5725 60.6328 47.6884L62.486 58.7549Z" fill="black"/>
<path d="M62.7425 58.6219L62.6375 58.6837C62.59 58.7111 62.5404 58.7349 62.4893 58.7547L60.6361 47.6883C60.6166 47.5737 60.5723 47.4648 60.5061 47.3693C60.4399 47.2738 60.3536 47.1939 60.2531 47.1355L43.9731 37.7338C44.0378 37.6701 44.1105 37.615 44.1893 37.5701L60.5033 46.9872C60.6037 47.0457 60.6901 47.1255 60.7563 47.2211C60.8224 47.3166 60.8668 47.4255 60.8863 47.5401L62.7425 58.6219Z" fill="#E0E0E0"/>
<path d="M53.6653 49.3131C53.551 48.6305 52.8437 47.7194 52.087 47.2839C51.3303 46.8484 50.8083 47.0461 50.9257 47.7318C51.043 48.4174 51.7472 49.3255 52.5039 49.7641C53.2606 50.2026 53.7826 49.9988 53.6653 49.3131Z" fill="#FDA758"/>
<path d="M56.8742 55.972C56.8415 55.5288 56.7554 55.0912 56.6178 54.6686C56.3769 53.9119 55.6604 50.9963 54.0234 50.5577C53.8287 50.4992 53.6221 50.4928 53.4242 50.5392C52.9702 50.6627 52.7633 51.1353 52.6737 51.5584C52.5903 52.1836 52.5903 52.8172 52.6737 53.4424C52.422 53.1546 52.1272 52.9077 51.7996 52.7104C51.5092 52.4918 51.1591 52.3668 50.7958 52.3522C50.7453 52.3497 50.6949 52.3597 50.6491 52.3812C50.6034 52.4027 50.5636 52.4352 50.5333 52.4757C50.4746 52.5838 50.5333 52.7197 50.6259 52.8155C50.7896 53.0131 50.9904 53.1799 51.1541 53.3776C51.2824 53.55 51.401 53.7294 51.5093 53.915C51.7162 54.2486 51.9479 54.5636 52.1795 54.8817C52.6246 55.5427 53.1829 56.1199 53.8288 56.5866C54.5717 57.0895 55.4146 57.4256 56.2997 57.5719C57.495 57.7201 58.6563 57.7016 59.4099 57.4391L56.8742 55.972Z" fill="#FFA8A7"/>
<path d="M85.9779 36.8753C84.8753 36.307 83.2631 38.5586 83.7758 40.9121C84.2885 43.2656 86.815 51.5399 86.815 51.5399C86.815 51.5399 75.4026 52.5592 74.4328 52.6796C73.7564 52.7599 72.9997 52.4171 72.3727 52.2102C71.5202 51.926 70.6585 51.7283 69.8184 51.4195C69.6722 51.3523 69.5129 51.3186 69.352 51.3206C69.2712 51.3241 69.1939 51.3542 69.1319 51.4061C69.0699 51.458 69.0268 51.529 69.0092 51.6079C69.0051 51.7045 69.0298 51.8002 69.0802 51.8828C69.3497 52.4324 69.7547 52.9043 70.257 53.2541C70.5004 53.3979 70.7317 53.5611 70.9488 53.7421C71.0816 53.8749 71.3751 54.2425 71.2577 54.4432L66.7236 57.0531C66.7236 57.0531 67.7676 57.9611 71.548 56.9017C72.9108 56.5452 74.2406 56.073 75.523 55.4903C75.523 55.4903 88.9708 56.0493 91.4015 55.3142C92.2601 55.0517 92.569 54.4432 91.9883 51.6758C91.3243 48.4699 89.4186 42.6232 88.9862 41.0789C88.038 37.7339 87.8126 37.8111 85.9779 36.8753Z" fill="#FFA8A7"/>
<path d="M85.4094 36.3962C85.4094 36.3962 87.2317 36.9089 88.0162 37.9405C88.8007 38.9721 91.8275 48.9514 91.8275 48.9514C91.0363 49.6113 90.1111 50.0913 89.1159 50.358C88.1207 50.6246 87.0794 50.6716 86.0642 50.4957C86.0642 50.4957 83.6304 43.5927 83.3709 41.7488C82.9107 38.8918 84.3068 36.6433 85.4094 36.3962Z" fill="#FDA758"/>
<path d="M75.5756 43.0923C75.4274 42.3202 75.9092 41.9032 76.6535 42.1657C77.0475 42.3276 77.398 42.5796 77.6769 42.9014C77.9558 43.2232 78.1554 43.606 78.2596 44.0189C78.4079 44.8003 75.7208 43.8583 75.5756 43.0923Z" fill="#FDA758"/>
<path d="M80.6688 45.4984L78.479 44.1055C78.5902 44.6985 77.7902 44.6151 77.0706 44.3649C76.3509 44.1147 75.4707 43.6082 75.3564 43.0152L73.4477 42.9905C73.2716 42.9905 73.2685 43.219 73.4477 43.4074C73.9202 43.9356 75.0197 44.8714 77.33 45.6776C79.6403 46.4837 80.5267 46.2335 80.8603 45.9864C80.9684 45.8938 80.8696 45.625 80.6688 45.4984Z" fill="#FDA758"/>
</svg>
