<svg class="svg-icon" style="width: 1em;height: 1em;vertical-align: middle;fill: currentColor;overflow: hidden;" viewBox="0 0 1024 1024" version="1.1" xmlns="http://www.w3.org/2000/svg"><path d="M561.664 814.293333c21.205333 0.64 42.026667 5.802667 61.056 15.189334h1.152a37.76 37.76 0 0 1 6.101333 52.309333 131.498667 131.498667 0 0 1-98.858666 55.765333 157.226667 157.226667 0 0 1-114.517334-31.488 69.333333 69.333333 0 0 1-29.781333-49.664c0-21.248 19.882667-31.146667 38.186667-35.285333a317.994667 317.994667 0 0 1 65.28-6.826667zM513.578667 85.333333c132.053333 0 268.330667 95.573333 282.453333 234.026667 2.304 28.416 0 58.026667 2.304 86.826667 7.466667 37.162667 24.746667 71.722667 50.005333 100.138666 15.701333 23.338667 24.746667 50.474667 26.325334 78.506667v8.746667a156.074667 156.074667 0 0 1-38.186667 103.125333 191.317333 191.317333 0 0 1-120.234667 59.562667 1609.173333 1609.173333 0 0 1-409.6 0 191.317333 191.317333 0 0 1-121.728-59.562667 153.728 153.728 0 0 1-35.498666-103.125333v-8.746667c1.493333-27.946667 10.282667-55.04 25.6-78.506667a218.709333 218.709333 0 0 0 50.773333-100.138666c2.261333-28.8 0-58.026667 2.261333-86.826667C242.56 180.906667 376.106667 85.333333 509.738667 85.333333z" fill="#200E32" /></svg>