<svg width="19" height="22" viewBox="0 0 19 22" fill="none" xmlns="http://www.w3.org/2000/svg">
<path d="M9.00016 21.8333C8.40433 21.8333 7.89444 21.6213 7.4705 21.1974C7.04655 20.7734 6.83422 20.2632 6.8335 19.6666H11.1668C11.1668 20.2625 10.9549 20.7727 10.5309 21.1974C10.107 21.622 9.59672 21.834 9.00016 21.8333ZM0.333496 18.5833V16.4166H2.50016V8.83329C2.50016 7.33468 2.95155 6.00326 3.85433 4.83904C4.75711 3.67482 5.93072 2.91179 7.37516 2.54996V1.79163C7.37516 1.34024 7.53333 0.956737 7.84966 0.641126C8.166 0.325515 8.5495 0.167348 9.00016 0.166626C9.45155 0.166626 9.83541 0.324793 10.1517 0.641126C10.4681 0.957459 10.6259 1.34096 10.6252 1.79163V2.14371C10.4266 2.54093 10.2821 2.94718 10.1918 3.36246C10.1016 3.77774 10.0654 4.20204 10.0835 4.63538C9.90294 4.59926 9.72672 4.56749 9.55483 4.54004C9.38294 4.5126 9.19805 4.49924 9.00016 4.49996C7.8085 4.49996 6.78836 4.92426 5.93975 5.77288C5.09114 6.62149 4.66683 7.64163 4.66683 8.83329V16.4166H13.3335V9.45621C13.6585 9.60065 14.0062 9.71368 14.3767 9.79529C14.7472 9.8769 15.1217 9.91735 15.5002 9.91663V16.4166H17.6668V18.5833H0.333496ZM15.5002 7.74996C14.5974 7.74996 13.83 7.43399 13.1981 6.80204C12.5661 6.1701 12.2502 5.40274 12.2502 4.49996C12.2502 3.59718 12.5661 2.82982 13.1981 2.19788C13.83 1.56593 14.5974 1.24996 15.5002 1.24996C16.4029 1.24996 17.1703 1.56593 17.8022 2.19788C18.4342 2.82982 18.7502 3.59718 18.7502 4.49996C18.7502 5.40274 18.4342 6.1701 17.8022 6.80204C17.1703 7.43399 16.4029 7.74996 15.5002 7.74996Z" fill="#573353"/>
</svg>
