<svg width="25" height="25" viewBox="0 0 25 25" fill="none" xmlns="http://www.w3.org/2000/svg">
<path d="M15.625 5.46875H6.25C5.8356 5.46875 5.43817 5.63337 5.14515 5.9264C4.85212 6.21942 4.6875 6.61685 4.6875 7.03125V21.875C4.6875 22.0185 4.72704 22.1593 4.8018 22.2819C4.87655 22.4044 4.98362 22.504 5.11126 22.5697C5.2389 22.6354 5.38217 22.6646 5.52534 22.6542C5.66851 22.6438 5.80604 22.5942 5.92285 22.5107L10.9375 18.9287L15.9531 22.5107C16.0699 22.5939 16.2074 22.6433 16.3504 22.6536C16.4934 22.6638 16.6365 22.6345 16.764 22.5689C16.8914 22.5032 16.9984 22.4037 17.0731 22.2814C17.1478 22.159 17.1874 22.0184 17.1875 21.875V7.03125C17.1875 6.61685 17.0229 6.21942 16.7299 5.9264C16.4368 5.63337 16.0394 5.46875 15.625 5.46875Z" fill="#FB9F4B"/>
<path d="M18.75 2.34375H8.59375C8.38655 2.34375 8.18784 2.42606 8.04132 2.57257C7.89481 2.71909 7.8125 2.9178 7.8125 3.125C7.8125 3.3322 7.89481 3.53091 8.04132 3.67743C8.18784 3.82394 8.38655 3.90625 8.59375 3.90625H18.75V18.75C18.75 18.9572 18.8323 19.1559 18.9788 19.3024C19.1253 19.4489 19.324 19.5312 19.5312 19.5312C19.7385 19.5312 19.9372 19.4489 20.0837 19.3024C20.2302 19.1559 20.3125 18.9572 20.3125 18.75V3.90625C20.3125 3.49185 20.1479 3.09442 19.8549 2.8014C19.5618 2.50837 19.1644 2.34375 18.75 2.34375Z" fill="#FB9F4B"/>
</svg>
