<svg width="11" height="14" viewBox="0 0 11 14" fill="none" xmlns="http://www.w3.org/2000/svg">
<path d="M0 1.68056C0 1.23484 0.177058 0.807389 0.492223 0.492223C0.807388 0.177058 1.23484 0 1.68056 0L8.40278 0C8.84849 0 9.27594 0.177058 9.59111 0.492223C9.90627 0.807389 10.0833 1.23484 10.0833 1.68056V13.0243C10.0833 13.1003 10.0626 13.1749 10.0236 13.2401C9.98451 13.3052 9.9285 13.3586 9.8615 13.3945C9.7945 13.4304 9.71903 13.4474 9.64312 13.4437C9.56721 13.4401 9.4937 13.416 9.43044 13.3739L5.04167 11.0085L0.652896 13.3739C0.589627 13.416 0.516124 13.4401 0.440214 13.4437C0.364305 13.4474 0.288831 13.4304 0.221833 13.3945C0.154834 13.3586 0.0988201 13.3052 0.0597556 13.2401C0.020691 13.1749 3.92581e-05 13.1003 0 13.0243V1.68056ZM1.68056 0.840278C1.4577 0.840278 1.24397 0.928807 1.08639 1.08639C0.928807 1.24397 0.840278 1.4577 0.840278 1.68056V12.2395L4.80891 10.1539C4.87786 10.108 4.95884 10.0835 5.04167 10.0835C5.12449 10.0835 5.20547 10.108 5.27442 10.1539L9.24306 12.2395V1.68056C9.24306 1.4577 9.15453 1.24397 8.99694 1.08639C8.83936 0.928807 8.62563 0.840278 8.40278 0.840278H1.68056Z" fill="#573353"/>
</svg>
